# Blender v2.78 (sub 0) OBJ File: 'geonachfist.blend'
# www.blender.org
mtllib geonachfist.mtl
o Base
v -0.210000 -0.210000 0.400000
v -0.210000 0.210000 0.400000
v -0.300000 -0.300000 0.100000
v -0.300000 0.300000 0.100000
v 0.210000 -0.210000 0.400000
v 0.210000 0.210000 0.400000
v 0.300000 -0.300000 0.100000
v 0.300000 0.300000 0.100000
v -0.147000 -0.144767 0.774474
v -0.147000 0.144767 0.825526
v 0.147000 0.144767 0.825526
v 0.147000 -0.144767 0.774474
v -0.210000 0.209201 -0.118303
v -0.210000 -0.209201 -0.081697
v 0.210000 -0.209201 -0.081697
v 0.210000 0.209201 -0.118303
v 0.000000 -0.330000 0.080000
v 0.000000 0.330000 0.080000
v 0.000000 -0.231000 0.410000
v 0.000000 0.231000 0.410000
v 0.000000 -0.159243 0.821921
v 0.000000 0.159243 0.878079
v 0.000000 -0.230121 -0.119867
v 0.000000 0.230121 -0.160133
vt 0.2542 0.3311
vt 0.2653 0.1253
vt 0.4142 0.1495
vt 0.3801 0.3380
vt 0.3989 0.8525
vt 0.3933 0.6620
vt 0.4744 0.6786
vt 0.4867 0.8360
vt 0.2678 0.8622
vt 0.2467 0.6577
vt 0.2054 0.5354
vt 0.0861 0.7123
vt 0.0001 0.6814
vt 0.4501 0.4987
vt 0.4787 0.0001
vt 0.2427 0.0001
vt 0.0039 0.3050
vt 0.0001 0.1144
vt 0.0743 0.1538
vt 0.0890 0.2739
vt 0.0731 0.8320
vt 0.5882 0.6141
vt 0.5860 0.8910
vt 0.4220 0.4984
vt 0.4639 0.3305
vt 0.5664 0.4063
vt 0.4486 0.9999
vt 0.4982 0.1757
vt 0.6059 0.1326
vt 0.2377 0.9805
vt 0.0001 0.8715
vt 0.2062 0.4455
vn -0.9578 0.0000 0.2873
vn 0.9118 -0.0147 -0.4103
vn 0.9578 0.0000 0.2873
vn 0.1259 -0.9756 0.1800
vn 0.0892 -0.9504 0.2979
vn -0.0892 0.9504 0.2979
vn -0.3176 -0.1647 0.9338
vn -0.1252 0.9793 0.1590
vn 0.9878 -0.0112 0.1556
vn -0.9878 -0.0112 0.1556
vn 0.1864 -0.0856 -0.9787
vn -0.1405 -0.8720 -0.4689
vn 0.1392 0.9043 -0.4035
vn -0.9118 -0.0147 -0.4103
vn -0.1392 0.9043 -0.4035
vn 0.1405 -0.8720 -0.4689
vn -0.1864 -0.0856 -0.9787
vn 0.1252 0.9793 0.1590
vn 0.3176 -0.1647 0.9338
vn 0.0892 0.9504 0.2979
vn -0.0892 -0.9504 0.2979
vn -0.1259 -0.9756 0.1800
usemtl geonachfist
s off
f 1/1/1 2/2/1 4/3/1 3/4/1
f 8/5/2 7/6/2 15/7/2 16/8/2
f 7/6/3 8/5/3 6/9/3 5/10/3
f 19/11/4 5/10/4 12/12/4 21/13/4
f 17/14/5 7/6/5 5/10/5 19/11/5
f 18/15/6 4/3/6 2/2/6 20/16/6
f 21/17/7 22/18/7 10/19/7 9/20/7
f 20/16/8 2/2/8 10/19/8 22/18/8
f 5/10/9 6/9/9 11/21/9 12/12/9
f 2/2/10 1/1/10 9/20/10 10/19/10
f 23/22/11 24/23/11 16/8/11 15/7/11
f 17/24/12 3/4/12 14/25/12 23/26/12
f 18/27/13 8/5/13 16/8/13 24/23/13
f 3/4/14 4/3/14 13/28/14 14/25/14
f 4/3/15 18/15/15 24/29/15 13/28/15
f 7/6/16 17/14/16 23/22/16 15/7/16
f 14/25/17 13/28/17 24/29/17 23/26/17
f 6/9/18 20/30/18 22/31/18 11/21/18
f 12/12/19 11/21/19 22/31/19 21/13/19
f 8/5/20 18/27/20 20/30/20 6/9/20
f 3/4/21 17/24/21 19/32/21 1/1/21
f 1/1/22 19/32/22 21/17/22 9/20/22
