# Blender v2.79 (sub 0) OBJ File: 'aetherwave.blend'
# www.blender.org
mtllib aetherwave.mtl
o Base
v -0.650000 -0.255000 0.050000
v -0.650000 0.255000 0.050000
v -0.250000 -0.425000 -0.250000
v -0.250000 0.425000 -0.250000
v -0.450000 0.297500 -0.150000
v -0.450000 -0.297500 -0.150000
v -0.850000 -0.170000 0.150000
v -0.850000 0.170000 0.150000
v 0.000000 -0.467500 -0.300000
v 0.000000 0.467500 -0.300000
v 0.650000 -0.255000 0.050000
v 0.650000 0.255000 0.050000
v 0.250000 -0.425000 -0.250000
v 0.250000 0.425000 -0.250000
v 0.450000 0.297500 -0.150000
v 0.450000 -0.297500 -0.150000
v 0.850000 -0.170000 0.150000
v 0.850000 0.170000 0.150000
vt 0.886441 0.616767
vt 0.886442 0.357922
vt 0.999931 0.401063
vt 0.999931 0.573626
vt 0.629398 0.703049
vt 0.629398 0.271639
vt 0.742888 0.336351
vt 0.742887 0.638337
vt 0.500000 0.724619
vt 0.500000 0.250069
vt 0.113558 0.616766
vt 0.000069 0.573625
vt 0.000069 0.401062
vt 0.113559 0.357921
vt 0.370602 0.703049
vt 0.257112 0.638337
vt 0.257113 0.336351
vt 0.370602 0.271639
vn -0.4472 0.0000 -0.8944
vn -0.1961 0.0000 -0.9806
vn -0.7071 0.0000 -0.7071
vn 0.4472 0.0000 -0.8944
vn 0.1961 0.0000 -0.9806
vn 0.7071 0.0000 -0.7071
usemtl None
s off
f 2/1/1 1/2/1 7/3/1 8/4/1
f 4/5/1 3/6/1 6/7/1 5/8/1
f 3/6/2 4/5/2 10/9/2 9/10/2
f 5/8/3 6/7/3 1/2/3 2/1/3
f 12/11/4 18/12/4 17/13/4 11/14/4
f 14/15/4 15/16/4 16/17/4 13/18/4
f 13/18/5 9/10/5 10/9/5 14/15/5
f 15/16/6 12/11/6 11/14/6 16/17/6
