# Blender v2.79 (sub 0) OBJ File: 'chaosorb.blend'
# www.blender.org
mtllib chaosorb.mtl
o Ball
v -0.245000 -0.245000 0.245000
v -0.245000 0.245000 0.245000
v -0.245000 -0.245000 -0.245000
v -0.245000 0.245000 -0.245000
v 0.245000 -0.245000 0.245000
v 0.245000 0.245000 0.245000
v 0.245000 -0.245000 -0.245000
v 0.245000 0.245000 -0.245000
v -0.350000 -0.350000 0.000000
v -0.350000 0.350000 0.000000
v 0.350000 -0.350000 0.000000
v 0.350000 0.350000 0.000000
v 0.000000 -0.350000 -0.350000
v 0.000000 0.350000 -0.350000
v 0.000000 -0.350000 0.350000
v 0.000000 0.350000 0.350000
v 0.000000 0.500000 0.000000
v 0.000000 -0.500000 0.000000
v -0.350000 0.000000 0.350000
v -0.350000 0.000000 -0.350000
v 0.350000 0.000000 -0.350000
v 0.350000 0.000000 0.350000
v 0.500000 0.000000 0.000000
v -0.500000 0.000000 0.000000
v 0.000000 0.000000 0.500000
v 0.000000 0.000000 -0.500000
vt 0.694238 0.708377
vt 0.739401 0.601100
vt 0.834532 0.651212
vt 0.801515 0.753540
vt 0.573994 0.176537
vt 0.573994 0.403934
vt 0.439807 0.349258
vt 0.406790 0.246930
vt 0.299512 0.292093
vt 0.344676 0.399370
vt 0.242347 0.432388
vt 0.192235 0.337256
vt 0.419756 0.592821
vt 0.582396 0.433895
vt 0.637073 0.568082
vt 0.586960 0.663214
vt 0.183957 0.017611
vt 0.254349 0.184816
vt 0.159217 0.234928
vt 0.025031 0.180252
vt 0.809793 0.433895
vt 0.968719 0.596536
vt 0.411354 0.017611
vt 0.356677 0.151798
vt 0.751403 0.848672
vt 0.806079 0.982859
vt 0.578682 0.982859
vt 0.649074 0.815654
vt 0.415068 0.566575
vt 0.187671 0.566575
vt 0.419756 0.820218
vt 0.553943 0.765542
vt 0.025031 0.407649
vt 0.968719 0.823933
vn -0.8054 0.4191 -0.4191
vn 0.4191 0.4191 -0.8054
vn 0.8054 0.4191 0.4191
vn -0.4191 0.4191 0.8054
vn 0.4191 -0.8054 0.4191
vn -0.4191 0.8054 0.4191
vn -0.4191 0.8054 -0.4191
vn 0.4191 -0.8054 -0.4191
vn 0.8054 0.4191 -0.4191
vn -0.8054 0.4191 0.4191
vn -0.4191 -0.8054 -0.4191
vn 0.4191 0.8054 -0.4191
vn 0.4191 0.8054 0.4191
vn -0.4191 -0.8054 0.4191
vn 0.4191 0.4191 0.8054
vn -0.4191 0.4191 -0.8054
vn -0.4191 -0.4191 -0.8054
vn 0.4191 -0.4191 0.8054
vn -0.8054 -0.4191 0.4191
vn 0.8054 -0.4191 -0.4191
vn -0.4191 -0.4191 0.8054
vn 0.8054 -0.4191 0.4191
vn 0.4191 -0.4191 -0.8054
vn -0.8054 -0.4191 -0.4191
usemtl chaosorb
s off
f 24/1/1 10/2/1 4/3/1 20/4/1
f 26/5/2 14/6/2 8/7/2 21/8/2
f 23/9/3 12/10/3 6/11/3 22/12/3
f 25/13/4 16/14/4 2/15/4 19/16/4
f 18/17/5 11/18/5 5/19/5 15/20/5
f 17/21/6 10/2/6 2/15/6 16/14/6
f 14/22/7 4/3/7 10/2/7 17/21/7
f 13/23/8 7/24/8 11/18/8 18/17/8
f 21/8/9 8/7/9 12/10/9 23/9/9
f 19/16/10 2/15/10 10/2/10 24/1/10
f 3/25/11 13/26/11 18/27/11 9/28/11
f 8/7/12 14/6/12 17/29/12 12/10/12
f 12/10/13 17/29/13 16/30/13 6/11/13
f 9/28/14 18/27/14 15/31/14 1/32/14
f 22/12/15 6/11/15 16/30/15 25/33/15
f 20/4/16 4/3/16 14/22/16 26/34/16
f 3/25/17 20/4/17 26/34/17 13/26/17
f 5/19/18 22/12/18 25/33/18 15/20/18
f 1/32/19 19/16/19 24/1/19 9/28/19
f 7/24/20 21/8/20 23/9/20 11/18/20
f 15/31/21 25/13/21 19/16/21 1/32/21
f 11/18/22 23/9/22 22/12/22 5/19/22
f 13/23/23 26/5/23 21/8/23 7/24/23
f 9/28/24 24/1/24 20/4/24 3/25/24
