# Blender v2.79 (sub 0) OBJ File: ''
# www.blender.org
mtllib crystalshard.mtl
o Effect01
v 0.000000 0.023674 -0.276432
v -0.080640 0.014603 -0.165479
v -0.080640 0.004303 0.197255
v 0.080640 0.004303 0.197255
v 0.080640 0.014603 -0.165479
v 0.040320 0.081971 -0.165575
v 0.040320 -0.063181 -0.165528
v 0.040320 0.082088 0.197305
v 0.040320 -0.063064 0.197352
v -0.040320 0.081971 -0.165575
v -0.040320 -0.063181 -0.165528
v -0.040320 0.082088 0.197305
v -0.040320 -0.063064 0.197352
v 0.000000 -0.007063 0.317328
vt 0.843623 0.974257
vt 0.878816 0.965595
vt 0.848466 0.995652
vt 0.844213 0.955124
vt 0.666362 0.987544
vt 0.641464 0.959939
vt 0.674049 0.968992
vt 0.674673 0.952950
vt 0.668038 0.933989
vt 0.754043 0.936147
vt 0.740885 0.955079
vt 0.850054 0.933989
vt 0.768889 0.955521
vt 0.768229 0.970951
vt 0.740301 0.969895
vt 0.752462 0.989523
vt 0.753470 0.962835
vn -0.7419 0.4433 -0.5030
vn 0.0000 0.8851 -0.4654
vn -0.7333 -0.3797 -0.5640
vn 0.8741 -0.4856 -0.0068
vn 0.7333 -0.3797 -0.5640
vn 0.8741 0.4856 0.0068
vn 0.0000 -0.7873 -0.6166
vn 0.7419 0.4433 -0.5030
vn 0.0000 1.0000 -0.0003
vn 0.0000 -1.0000 0.0003
vn -0.8741 0.4856 0.0068
vn -0.8741 -0.4856 -0.0068
vn 0.7591 -0.4537 0.4669
vn 0.0000 -0.9062 0.4230
vn -0.7591 -0.4537 0.4669
vn -0.7480 0.3874 0.5390
vn 0.0000 0.8028 0.5963
vn 0.7480 0.3874 0.5390
usemtl vapula
s off
f 10/1/1 1/2/1 2/3/1
f 1/2/2 10/1/2 6/4/2
f 2/5/3 1/6/3 11/7/3
f 7/8/4 5/9/4 4/10/4 9/11/4
f 7/8/5 1/6/5 5/9/5
f 5/12/6 6/4/6 8/13/6 4/10/6
f 1/6/7 7/8/7 11/7/7
f 1/2/8 6/4/8 5/12/8
f 6/4/9 10/1/9 12/14/9 8/13/9
f 11/7/10 7/8/10 9/11/10 13/15/10
f 3/16/11 12/14/11 10/1/11 2/3/11
f 13/15/12 3/16/12 2/5/12 11/7/12
f 4/10/13 14/17/13 9/11/13
f 9/11/14 14/17/14 13/15/14
f 3/16/15 13/15/15 14/17/15
f 12/14/16 3/16/16 14/17/16
f 12/14/17 14/17/17 8/13/17
f 4/10/18 8/13/18 14/17/18
