# Blender v2.78 (sub 0) OBJ File: 'roc.blend'
# www.blender.org
mtllib roc.mtl
o WingRight
v -0.150000 1.350000 0.900000
v -0.150000 1.400069 0.625034
v -0.898592 1.445069 0.758361
v -0.914713 1.395000 0.942623
v -0.150000 1.650000 0.900000
v -0.150000 1.650000 0.600000
v -0.896410 1.605000 0.733422
v -0.914713 1.605000 0.942623
v -1.882111 1.361860 0.700586
v -1.931008 1.311791 0.834930
v -1.890060 1.479152 0.671052
v -1.947519 1.479152 0.828920
v -3.065369 1.162758 0.314611
v -3.085537 1.112688 0.370020
v -3.065063 1.196369 0.288081
v -3.093793 1.196369 0.367015
v -0.533194 1.605000 -0.802505
v -1.218862 1.479152 -0.857040
v -2.356016 1.196369 -1.340962
vt 0.5612 0.3737
vt 0.5612 0.4195
vt 0.5230 0.4157
vt 0.5114 0.3532
vt 0.6259 0.3686
vt 0.5092 0.3913
vt 0.6303 0.4227
vt 0.6265 0.3937
vt 0.7824 0.3915
vt 0.6271 0.4935
vt 0.5100 0.4918
vt 0.5134 0.4461
vt 0.5147 0.4316
vt 0.6229 0.3527
vt 0.5066 0.3390
vt 0.6221 0.3206
vt 0.7883 0.4139
vt 0.9726 0.3699
vt 0.6295 0.4615
vt 0.7867 0.4860
vt 0.7753 0.3204
vt 0.7811 0.3733
vt 0.9909 0.4571
vt 0.9781 0.4574
vt 0.9870 0.4519
vt 0.7860 0.4603
vt 0.9663 0.2844
vt 0.7825 0.3450
vt 0.9722 0.3636
vt 0.9621 0.2697
vt 0.7747 0.3179
vt 0.8703 0.0144
vt 0.6215 0.3179
vt 0.6877 0.0784
vt 0.5088 0.2904
vt 0.5810 0.0804
vt 0.5154 0.3737
vt 0.5094 0.2933
vt 0.9755 0.3812
vt 0.9777 0.4445
vt 0.9627 0.2721
vn -1.0000 0.0000 0.0000
vn 0.1694 0.0982 0.9806
vn -0.0963 0.9626 0.2531
vn -0.0557 0.0000 -0.9985
vn 0.0907 0.9798 0.1784
vn -0.0590 0.9982 -0.0052
vn -0.2422 0.9347 0.2602
vn 0.1094 0.0000 -0.9940
vn -0.1250 0.9921 -0.0109
vn -0.0814 0.1546 0.9846
vn 0.9091 0.2529 0.3309
vn 0.3730 0.0035 -0.9278
vn -0.2097 0.9748 -0.0763
vn -0.3478 0.2067 0.9145
vn -0.2054 0.9746 -0.0894
vn -0.1222 0.9911 -0.0537
vn -0.0628 0.9979 -0.0149
vn 0.1821 0.1491 0.9719
vn -0.1103 0.9438 0.3116
vn 0.0714 0.9609 0.2674
vn -0.0602 0.9982 0.0000
vn -0.3529 0.7545 0.5533
vn 0.1074 -0.0251 -0.9939
vn -0.1163 0.9923 -0.0423
vn -0.0770 0.2385 0.9681
vn 0.9007 0.1040 0.4218
vn -0.3388 0.5848 0.7370
vn -0.2042 0.9748 -0.0897
vn -0.1771 0.9833 -0.0419
usemtl None
s off
f 5/1/1 6/2/1 2/3/1
f 6/4/2 7/5/2 2/6/2
f 4/7/3 3/8/3 9/9/3
f 8/10/4 5/11/4 1/12/4
f 1/13/5 2/6/5 3/8/5
f 8/14/6 5/15/6 7/16/6
f 10/17/7 9/9/7 13/18/7
f 8/10/8 4/19/8 12/20/8
f 7/16/9 11/21/9 8/14/9
f 3/8/10 7/5/10 11/22/10
f 15/23/11 16/24/11 13/25/11
f 12/20/12 10/26/12 16/24/12
f 11/21/13 16/27/13 12/28/13
f 9/9/14 11/22/14 15/29/14
f 15/30/15 11/31/15 19/32/15
f 11/31/16 7/33/16 18/34/16
f 6/35/17 17/36/17 7/33/17
f 1/37/1 5/1/1 2/3/1
f 7/5/18 3/8/18 2/6/18
f 10/17/19 4/7/19 9/9/19
f 4/19/4 8/10/4 1/12/4
f 4/7/20 1/13/20 3/8/20
f 7/16/21 5/15/21 6/38/21
f 14/39/22 10/17/22 13/18/22
f 4/19/23 10/26/23 12/20/23
f 8/14/24 11/21/24 12/28/24
f 9/9/25 3/8/25 11/22/25
f 16/24/26 14/40/26 13/25/26
f 10/26/12 14/40/12 16/24/12
f 15/41/13 16/27/13 11/21/13
f 13/18/27 9/9/27 15/29/27
f 11/31/28 18/34/28 19/32/28
f 7/33/29 17/36/29 18/34/29
o Claw
v -0.134400 0.524847 -0.729369
v -0.147000 0.738770 -0.636249
v 0.147000 0.738770 -0.636249
v 0.134400 0.524847 -0.729369
v -0.084000 0.416859 -0.600674
v -0.147000 0.650021 -0.445924
v 0.147000 0.650021 -0.445924
v 0.084000 0.416859 -0.600674
v -0.084000 0.214039 -0.808825
v 0.084000 0.214039 -0.808825
v -0.084000 0.228681 -0.641464
v 0.084000 0.228681 -0.641464
v -0.000000 -0.087093 -0.628552
vt 0.7468 0.9081
vt 0.6905 0.8532
vt 0.7104 0.9379
vt 0.5059 0.9801
vt 0.5059 0.9389
vt 0.5471 0.9389
vt 0.6909 0.8527
vt 0.7466 0.9082
vt 0.7099 0.9376
vt 0.6301 0.8997
vt 0.5830 0.8997
vt 0.5830 0.8098
vt 0.6360 0.9651
vt 0.5771 0.9651
vt 0.5503 0.9008
vt 0.5562 0.9792
vt 0.4973 0.9792
vt 0.5032 0.9008
vt 0.5032 0.8469
vt 0.7909 0.9765
vt 0.7919 0.9759
vt 0.6301 0.8098
vt 0.6065 0.7115
vt 0.5503 0.8469
vt 0.5268 0.7583
vt 0.7961 0.9298
vt 0.8866 0.9439
vt 0.7965 0.9291
vt 0.8872 0.9422
vt 0.6561 0.9010
vt 0.5471 0.9801
vt 0.6560 0.9001
vn -0.9419 -0.3207 0.0998
vn 0.0000 0.9063 0.4226
vn 0.9419 -0.3207 0.0998
vn 0.0000 0.2477 -0.9688
vn 0.0000 0.3991 -0.9169
vn 0.0000 -0.5530 0.8332
vn 0.0000 -0.2118 0.9773
vn 0.9574 -0.2068 0.2015
vn -0.9574 -0.2068 0.2015
vn 0.0000 -0.5136 -0.8580
vn 0.0000 0.0409 0.9992
vn 0.9664 -0.2562 0.0224
vn -0.9664 -0.2562 0.0224
vn -0.9985 -0.0489 -0.0228
vn 0.9985 -0.0489 -0.0228
vn 1.0000 -0.0000 0.0000
vn -1.0000 0.0000 0.0000
usemtl None
s off
f 24/42/30 25/43/30 20/44/30
f 25/45/31 26/46/31 22/47/31
f 26/48/32 27/49/32 23/50/32
f 20/51/33 23/52/33 29/53/33
f 20/51/34 21/54/34 22/55/34
f 27/56/35 26/57/35 25/58/35
f 27/56/36 24/59/36 30/60/36
f 23/50/37 27/49/37 29/61/37
f 24/42/38 20/44/38 28/62/38
f 28/63/39 29/53/39 32/64/39
f 31/65/40 30/60/40 32/66/40
f 29/61/41 31/67/41 32/68/41
f 30/69/42 28/62/42 32/70/42
f 25/43/43 21/71/43 20/44/43
f 21/72/31 25/45/31 22/47/31
f 22/73/44 26/48/44 23/50/44
f 28/63/33 20/51/33 29/53/33
f 23/52/34 20/51/34 22/55/34
f 24/59/35 27/56/35 25/58/35
f 31/65/36 27/56/36 30/60/36
f 27/49/45 31/67/45 29/61/45
f 30/69/46 24/42/46 28/62/46
o Tail
v -0.150000 1.260349 -0.707743
v -0.150000 1.175824 -0.954917
v 0.150000 1.175824 -0.954917
v 0.150000 1.260349 -0.707743
v -0.150000 1.542257 -0.810349
v -0.150000 1.421570 -1.126990
v 0.150000 1.421570 -1.126990
v 0.150000 1.542257 -0.810349
v -0.150000 1.027514 -1.110143
v 0.150000 1.027514 -1.110143
v -0.150000 1.053661 -1.409002
v 0.150000 1.053661 -1.409002
v -0.150000 0.817300 -1.018889
v 0.150000 0.817300 -1.018889
v -0.150000 0.667300 -1.278696
v 0.150000 0.667300 -1.278696
v -0.150000 0.775461 -0.687756
v 0.150000 0.775461 -0.687756
v -0.150000 0.529716 -0.859829
v 0.150000 0.529716 -0.859829
v -0.225000 0.878788 -0.276119
v 0.225000 0.878788 -0.276119
v -0.225000 0.510170 -0.534229
v 0.225000 0.510170 -0.534229
v -0.202500 0.845836 -0.274368
v 0.202500 0.845836 -0.274368
v -0.202500 0.603122 -0.445981
v 0.202500 0.603122 -0.445981
v -0.141750 0.641150 -0.042125
v 0.141750 0.641150 -0.042125
v -0.141750 0.588217 -0.243359
v 0.141750 0.588217 -0.243359
v -0.000000 0.113745 -0.132071
vt 0.7139 0.7741
vt 0.7646 0.7712
vt 0.7511 0.7283
vt 0.8839 0.8411
vt 0.8390 0.8411
vt 0.8390 0.8089
vt 0.7633 0.7725
vt 0.7125 0.7744
vt 0.7507 0.7293
vt 0.7538 0.7724
vt 0.7133 0.7724
vt 0.7133 0.7319
vt 0.8390 0.8802
vt 0.9175 0.9492
vt 0.9175 0.8984
vt 0.9625 0.8984
vt 0.8839 0.8089
vt 0.8390 0.7745
vt 0.7799 0.7158
vt 0.9175 0.8288
vt 0.7800 0.7141
vt 0.8839 0.7745
vt 0.8390 0.7245
vt 0.8210 0.7339
vt 0.8211 0.6727
vt 0.9625 0.8288
vt 0.9175 0.7677
vt 0.8216 0.7313
vt 0.8204 0.6702
vt 0.8839 0.7245
vt 0.8277 0.6608
vt 0.7770 0.6815
vt 0.7683 0.6330
vt 0.9625 0.7677
vt 0.9175 0.7016
vt 0.7765 0.6799
vt 0.7667 0.6316
vt 0.8952 0.6608
vt 0.8918 0.6559
vt 0.7320 0.6596
vt 0.7221 0.6134
vt 0.9625 0.7016
vt 0.9063 0.6527
vt 0.7310 0.6589
vt 0.7201 0.6129
vt 0.8311 0.6559
vt 0.8402 0.6095
vt 0.6677 0.6533
vt 0.7042 0.6210
vt 0.9737 0.6527
vt 0.9096 0.6335
vt 0.6666 0.6539
vt 0.7024 0.6210
vt 0.6682 0.6473
vt 0.6752 0.6080
vt 0.9703 0.6335
vt 0.9187 0.6030
vt 0.6669 0.6480
vt 0.6731 0.6085
vt 0.8827 0.6095
vt 0.8614 0.5293
vt 0.6440 0.6066
vt 0.6805 0.5320
vt 0.9612 0.6030
vt 0.9400 0.5299
vt 0.6419 0.6078
vt 0.6768 0.5325
vt 0.7120 0.7292
vt 0.7115 0.7294
vt 0.7538 0.7319
vt 0.8839 0.8802
vt 0.9625 0.9492
vn -1.0000 0.0000 0.0000
vn 0.0000 -0.7230 0.6908
vn 1.0000 0.0000 0.0000
vn 0.0000 0.3420 0.9397
vn 0.0000 -0.9462 0.3236
vn 0.0000 0.9344 -0.3562
vn 0.0000 0.3982 0.9173
vn 0.0000 0.6084 -0.7937
vn 0.0000 0.9921 0.1254
vn 0.0000 -0.3196 -0.9476
vn 0.0000 0.9699 -0.2435
vn 0.0000 -0.9501 -0.3121
vn 0.0000 0.0531 0.9986
vn 0.9655 0.1494 -0.2134
vn 0.0000 -0.9982 -0.0599
vn -0.9655 0.1494 -0.2134
vn 0.0000 0.7502 0.6612
vn 0.6447 -0.4385 0.6262
vn 0.0000 -0.6885 0.7252
vn -0.6447 -0.4385 0.6262
vn 0.9441 -0.1903 0.2691
vn 0.0000 -0.9973 -0.0734
vn -0.9441 -0.1903 0.2691
vn 0.0000 -0.1681 0.9858
vn 0.9602 -0.2702 0.0711
vn 0.0000 -0.2284 -0.9736
vn -0.9602 -0.2702 0.0711
vn 0.6727 -0.4272 0.6042
vn -0.6727 -0.4272 0.6042
vn 0.9732 -0.2224 0.0585
vn -0.9732 -0.2224 0.0585
usemtl None
s off
f 37/74/47 38/75/47 34/76/47
f 35/77/48 34/78/48 41/79/48
f 39/80/49 40/81/49 35/82/49
f 40/83/50 37/84/50 33/85/50
f 33/86/51 34/78/51 35/77/51
f 40/87/52 39/88/52 38/89/52
f 42/90/53 41/79/53 45/91/53
f 39/80/49 35/82/49 42/92/49
f 38/89/54 39/88/54 44/93/54
f 34/76/47 38/75/47 41/94/47
f 46/95/55 45/91/55 49/96/55
f 44/97/49 42/92/49 48/98/49
f 43/99/56 44/93/56 48/100/56
f 41/94/47 43/101/47 47/102/47
f 50/103/57 49/96/57 53/104/57
f 48/98/49 46/105/49 52/106/49
f 47/107/58 48/100/58 52/108/58
f 45/109/47 47/102/47 51/110/47
f 54/111/59 53/104/59 58/112/59
f 52/106/60 50/113/60 56/114/60
f 51/115/61 52/108/61 56/116/61
f 49/117/62 51/110/62 55/118/62
f 58/112/63 57/119/63 61/120/63
f 56/114/64 54/121/64 60/122/64
f 55/123/65 56/116/65 60/124/65
f 53/125/66 55/118/66 59/126/66
f 60/122/67 58/127/67 64/128/67
f 59/129/68 60/124/68 64/130/68
f 57/131/69 59/126/69 63/132/69
f 62/133/70 61/120/70 65/134/70
f 64/128/71 62/135/71 65/136/71
f 63/137/72 64/130/72 65/138/72
f 61/139/73 63/132/73 65/140/73
f 33/141/47 37/74/47 34/76/47
f 42/90/48 35/77/48 41/79/48
f 40/81/49 36/142/49 35/82/49
f 36/143/50 40/83/50 33/85/50
f 36/144/51 33/86/51 35/77/51
f 37/145/52 40/87/52 38/89/52
f 46/95/53 42/90/53 45/91/53
f 44/97/49 39/80/49 42/92/49
f 43/99/54 38/89/54 44/93/54
f 38/75/47 43/101/47 41/94/47
f 50/103/55 46/95/55 49/96/55
f 42/92/49 46/105/49 48/98/49
f 47/107/56 43/99/56 48/100/56
f 45/109/47 41/94/47 47/102/47
f 54/111/57 50/103/57 53/104/57
f 46/105/49 50/113/49 52/106/49
f 51/115/58 47/107/58 52/108/58
f 49/117/47 45/109/47 51/110/47
f 50/113/60 54/121/60 56/114/60
f 55/123/61 51/115/61 56/116/61
f 53/125/62 49/117/62 55/118/62
f 62/133/63 58/112/63 61/120/63
f 54/121/74 58/127/74 60/122/74
f 59/129/65 55/123/65 60/124/65
f 57/131/75 53/125/75 59/126/75
f 58/127/76 62/135/76 64/128/76
f 63/137/68 59/129/68 64/130/68
f 61/139/77 57/131/77 63/132/77
f 53/104/59 57/119/59 58/112/59
o WingLeft
v 0.150000 1.350000 0.900000
v 0.150000 1.400069 0.625034
v 0.898592 1.445069 0.758361
v 0.914713 1.395000 0.942623
v 0.150000 1.650000 0.900000
v 0.150000 1.650000 0.600000
v 0.896410 1.605000 0.733422
v 0.914713 1.605000 0.942623
v 1.882111 1.361860 0.700586
v 1.931008 1.311791 0.834930
v 1.890060 1.479152 0.671052
v 1.947519 1.479152 0.828920
v 3.065369 1.162758 0.314611
v 3.085537 1.112688 0.370020
v 3.065063 1.196369 0.288081
v 3.093793 1.196369 0.367015
v 0.533194 1.605000 -0.802505
v 1.218862 1.479152 -0.857040
v 2.356016 1.196369 -1.340962
vt 0.5612 0.3737
vt 0.5612 0.4195
vt 0.5230 0.4157
vt 0.5114 0.3532
vt 0.5092 0.3913
vt 0.6259 0.3686
vt 0.6303 0.4227
vt 0.7824 0.3915
vt 0.6265 0.3937
vt 0.6271 0.4935
vt 0.5134 0.4461
vt 0.5100 0.4918
vt 0.5147 0.4316
vt 0.6229 0.3527
vt 0.6221 0.3206
vt 0.5066 0.3390
vt 0.7883 0.4139
vt 0.9726 0.3699
vt 0.7867 0.4860
vt 0.6295 0.4615
vt 0.7753 0.3204
vt 0.7811 0.3733
vt 0.9909 0.4571
vt 0.9870 0.4519
vt 0.9781 0.4574
vt 0.7860 0.4603
vt 0.7825 0.3450
vt 0.9663 0.2844
vt 0.9722 0.3636
vt 0.9621 0.2697
vt 0.8703 0.0144
vt 0.7747 0.3179
vt 0.6877 0.0784
vt 0.6215 0.3179
vt 0.5088 0.2904
vt 0.5810 0.0804
vt 0.5154 0.3737
vt 0.5094 0.2933
vt 0.9755 0.3812
vt 0.9777 0.4445
vt 0.9627 0.2721
vn -1.0000 -0.0000 0.0000
vn -0.1694 0.0982 0.9806
vn 0.0963 0.9626 0.2531
vn 0.0557 0.0000 -0.9985
vn -0.0907 0.9798 0.1784
vn 0.0590 0.9982 -0.0052
vn 0.2422 0.9347 0.2602
vn -0.1094 0.0000 -0.9940
vn 0.1250 0.9921 -0.0109
vn 0.0814 0.1546 0.9846
vn -0.9091 0.2529 0.3309
vn -0.3730 0.0035 -0.9278
vn 0.2097 0.9748 -0.0763
vn 0.3478 0.2067 0.9145
vn 0.2054 0.9746 -0.0894
vn 0.1222 0.9911 -0.0537
vn 0.0628 0.9979 -0.0149
vn -0.1821 0.1491 0.9719
vn 0.1103 0.9438 0.3116
vn -0.0714 0.9609 0.2674
vn 0.0602 0.9982 0.0000
vn 0.3529 0.7545 0.5533
vn -0.1074 -0.0251 -0.9939
vn 0.1163 0.9923 -0.0423
vn 0.0770 0.2385 0.9681
vn -0.9007 0.1040 0.4218
vn 0.3388 0.5848 0.7370
vn 0.2042 0.9748 -0.0897
vn 0.1771 0.9833 -0.0419
usemtl None
s off
f 70/146/78 71/147/78 67/148/78
f 71/149/79 67/150/79 72/151/79
f 69/152/80 74/153/80 68/154/80
f 73/155/81 66/156/81 70/157/81
f 66/158/82 68/154/82 67/150/82
f 73/159/83 72/160/83 70/161/83
f 75/162/84 78/163/84 74/153/84
f 73/155/85 77/164/85 69/165/85
f 72/160/86 73/159/86 76/166/86
f 68/154/87 76/167/87 72/151/87
f 80/168/88 78/169/88 81/170/88
f 77/164/89 81/170/89 75/171/89
f 76/166/90 77/172/90 81/173/90
f 74/153/91 80/174/91 76/167/91
f 80/175/92 84/176/92 76/177/92
f 76/177/93 83/178/93 72/179/93
f 71/180/94 72/179/94 82/181/94
f 66/182/78 70/146/78 67/148/78
f 72/151/95 67/150/95 68/154/95
f 75/162/96 74/153/96 69/152/96
f 69/165/81 66/156/81 73/155/81
f 69/152/97 68/154/97 66/158/97
f 72/160/98 71/183/98 70/161/98
f 79/184/99 78/163/99 75/162/99
f 69/165/100 77/164/100 75/171/100
f 73/159/101 77/172/101 76/166/101
f 74/153/102 76/167/102 68/154/102
f 81/170/103 78/169/103 79/185/103
f 75/171/89 81/170/89 79/185/89
f 80/186/90 76/166/90 81/173/90
f 78/163/104 80/174/104 74/153/104
f 76/177/105 84/176/105 83/178/105
f 72/179/106 83/178/106 82/181/106
o Mouth
v -0.108000 1.333938 1.790828
v -0.120000 1.366975 1.492653
v 0.120000 1.366975 1.492653
v 0.108000 1.333938 1.790828
v -0.108000 1.483025 1.807347
v -0.120000 1.516063 1.509172
v 0.120000 1.516063 1.509172
v 0.108000 1.483025 1.807347
v -0.068040 1.275824 2.689898
v 0.068040 1.275824 2.689898
v -0.068040 1.342914 2.697330
v 0.068040 1.342914 2.697330
vt 0.3433 0.5414
vt 0.4115 0.5414
vt 0.3433 0.5074
vt 0.5600 0.6016
vt 0.5600 0.5471
vt 0.5940 0.5471
vt 0.4115 0.5421
vt 0.3433 0.5421
vt 0.3433 0.5081
vt 0.5267 0.5491
vt 0.5267 0.5981
vt 0.3222 0.5890
vt 0.5948 0.5463
vt 0.5948 0.6008
vt 0.2234 0.5528
vt 0.2914 0.5500
vt 0.2234 0.6018
vt 0.3069 0.5890
vt 0.3069 0.5581
vt 0.3222 0.5581
vt 0.0189 0.5927
vt 0.1389 0.5328
vt 0.1389 0.5320
vt 0.2914 0.6045
vt 0.5940 0.6016
vt 0.4115 0.5081
vt 0.0189 0.5618
vt 0.1389 0.5175
vt 0.4115 0.5074
vt 0.1389 0.5167
vn -0.9992 -0.0044 0.0397
vn 0.0000 0.1101 -0.9939
vn 0.9992 -0.0044 0.0397
vn 0.0000 -0.9979 -0.0645
vn 0.0000 -0.9939 -0.1101
vn 0.0000 0.9939 0.1101
vn 0.0000 -0.1101 0.9939
vn 0.0000 0.9878 0.1555
vn 0.9990 -0.0049 0.0441
vn -0.9990 -0.0049 0.0441
usemtl None
s off
f 89/187/107 90/188/107 85/189/107
f 90/190/108 91/191/108 87/192/108
f 91/193/109 92/194/109 88/195/109
f 85/196/110 88/197/110 94/198/110
f 85/196/111 86/199/111 87/200/111
f 92/201/112 91/202/112 89/203/112
f 96/204/113 95/205/113 93/206/113
f 92/201/114 89/203/114 95/207/114
f 88/195/115 92/194/115 96/208/115
f 89/187/116 85/189/116 95/209/116
f 91/202/112 90/210/112 89/203/112
f 86/211/108 90/190/108 87/192/108
f 87/212/109 91/193/109 88/195/109
f 93/206/110 85/196/110 94/198/110
f 88/197/111 85/196/111 87/200/111
f 94/198/113 96/204/113 93/206/113
f 96/213/114 92/201/114 95/207/114
f 94/214/115 88/195/115 96/208/115
f 90/188/107 86/215/107 85/189/107
f 85/189/116 93/216/116 95/209/116
o Head
v -0.150000 1.350000 1.200000
v -0.150000 1.350000 0.900000
v 0.150000 1.350000 0.900000
v 0.150000 1.350000 1.200000
v -0.150000 1.650000 1.200000
v -0.150000 1.650000 0.900000
v 0.150000 1.650000 0.900000
v 0.150000 1.650000 1.200000
v -0.225000 1.275856 1.369610
v 0.225000 1.275856 1.369610
v -0.225000 1.724144 1.330390
v 0.225000 1.724144 1.330390
v -0.135000 1.430881 1.785380
v 0.135000 1.430881 1.785380
v -0.135000 1.699853 1.808912
v 0.135000 1.699853 1.808912
v -0.085050 1.446581 2.690192
v 0.085050 1.446581 2.690192
v -0.085050 1.527272 2.697251
v 0.085050 1.527272 2.697251
v 0.000000 1.952676 1.785390
v 0.000000 1.936754 1.251235
v -0.000000 1.690468 1.795786
v -0.000000 1.674545 1.261631
vt 0.3729 0.7268
vt 0.4371 0.7231
vt 0.4334 0.6589
vt 0.3976 0.9629
vt 0.3976 0.8985
vt 0.4619 0.8985
vt 0.4378 0.7251
vt 0.3736 0.7286
vt 0.3701 0.6644
vt 0.3765 0.7769
vt 0.3765 0.8412
vt 0.3368 0.7608
vt 0.4408 0.7769
vt 0.4408 0.8412
vt 0.3939 0.8982
vt 0.4582 0.8982
vt 0.4582 0.9625
vt 0.3368 0.8573
vt 0.2417 0.7801
vt 0.3939 0.9625
vt 0.3618 0.9786
vt 0.3422 0.7462
vt 0.3692 0.6626
vt 0.3416 0.7445
vt 0.2417 0.8380
vt 0.0478 0.8273
vt 0.3618 0.8822
vt 0.2591 0.9593
vt 0.3296 0.6505
vt 0.2400 0.6879
vt 0.3286 0.6489
vt 0.2392 0.6867
vt 0.0651 0.9122
vt 0.0651 0.9486
vt 0.0478 0.9486
vt 0.2591 0.9015
vt 0.2377 0.7458
vt 0.0455 0.7179
vt 0.2371 0.7445
vt 0.0448 0.7173
vt 0.4619 0.9629
vt 0.4343 0.6609
vt 0.0478 0.7908
vt 0.0478 0.9122
vt 0.0462 0.7005
vt 0.0454 0.7000
vt 0.4714 0.6198
vt 0.5754 0.6204
vt 0.5754 0.7398
vt 0.4714 0.7392
vn -1.0000 0.0000 0.0000
vn 0.0000 0.0000 -1.0000
vn 1.0000 0.0000 0.0000
vn 0.0000 -0.9163 -0.4005
vn 0.0000 -1.0000 0.0000
vn 0.0000 1.0000 0.0000
vn 0.0000 -0.9370 0.3494
vn 0.0000 0.8693 -0.4943
vn 0.8668 0.0000 -0.4986
vn -0.8668 0.0000 -0.4986
vn 0.0000 -0.9998 0.0173
vn 0.0000 0.9987 0.0507
vn 0.9786 0.0179 0.2051
vn -0.9786 0.0179 0.2051
vn 0.0000 -0.0872 0.9962
vn 0.0000 0.9816 0.1907
vn 0.9985 -0.0048 0.0552
vn -0.9985 -0.0048 0.0552
vn 0.9080 -0.0365 -0.4175
vn -0.9080 -0.0365 -0.4175
vn 0.9828 -0.0161 0.1840
vn -0.9828 -0.0161 0.1840
usemtl None
s off
f 101/217/117 102/218/117 98/219/117
f 102/220/118 103/221/118 99/222/118
f 103/223/119 104/224/119 100/225/119
f 97/226/120 100/227/120 105/228/120
f 97/226/121 98/229/121 99/230/121
f 104/231/122 103/232/122 102/233/122
f 105/228/123 106/234/123 109/235/123
f 104/231/124 101/236/124 107/237/124
f 100/225/125 104/224/125 108/238/125
f 101/217/126 97/239/126 107/240/126
f 109/235/127 110/241/127 114/242/127
f 108/243/128 107/237/128 111/244/128
f 106/245/129 108/238/129 110/246/129
f 107/240/130 105/247/130 109/248/130
f 116/249/131 115/250/131 113/251/131
f 112/252/132 111/244/132 115/250/132
f 110/246/133 112/253/133 116/254/133
f 111/255/134 109/248/134 115/256/134
f 97/239/117 101/217/117 98/219/117
f 98/257/118 102/220/118 99/222/118
f 99/258/119 103/223/119 100/225/119
f 100/227/121 97/226/121 99/230/121
f 101/236/122 104/231/122 102/233/122
f 100/227/120 106/234/120 105/228/120
f 108/243/124 104/231/124 107/237/124
f 106/245/135 100/225/135 108/238/135
f 97/239/136 105/247/136 107/240/136
f 113/259/127 109/235/127 114/242/127
f 112/252/128 108/243/128 111/244/128
f 108/238/137 112/253/137 110/246/137
f 111/255/138 107/240/138 109/248/138
f 114/260/131 116/249/131 113/251/131
f 116/249/132 112/252/132 115/250/132
f 114/261/133 110/246/133 116/254/133
f 106/234/123 110/241/123 109/235/123
f 109/248/134 113/262/134 115/256/134
f 118/263/117 120/264/117 119/265/117
f 117/266/117 118/263/117 119/265/117
o Body
v -0.300000 1.200000 0.450000
v -0.300000 1.200000 -0.300000
v 0.300000 1.200000 -0.300000
v 0.300000 1.200000 0.450000
v -0.300000 1.800000 0.450000
v -0.300000 1.800000 -0.300000
v 0.300000 1.800000 -0.300000
v 0.300000 1.800000 0.450000
v -0.210000 1.159675 -0.811250
v 0.210000 1.159675 -0.811250
v -0.210000 1.540325 -0.988750
v 0.210000 1.540325 -0.988750
v -0.210000 1.290000 1.050000
v 0.210000 1.290000 1.050000
v -0.210000 1.710000 1.050000
v 0.210000 1.710000 1.050000
v -0.357000 1.956324 0.403903
v 0.357000 1.956324 0.403903
v -0.567000 1.899791 -0.726767
v 0.567000 1.899791 -0.726767
v -0.735000 2.000744 -1.716102
v 0.735000 2.000744 -1.716102
vt 0.1315 0.1287
vt 0.2589 0.1322
vt 0.2616 0.0303
vt 0.2585 0.3622
vt 0.2585 0.2602
vt 0.3456 0.2755
vt 0.2579 0.2465
vt 0.1305 0.2424
vt 0.1338 0.1405
vt 0.1311 0.2602
vt 0.1311 0.3622
vt 0.0280 0.3469
vt 0.1311 0.3705
vt 0.2585 0.3705
vt 0.2585 0.4724
vt 0.3908 0.2796
vt 0.3908 0.2082
vt 0.4622 0.2082
vt 0.2612 0.1447
vt 0.3772 0.2063
vt 0.3835 0.3858
vt 0.3780 0.0913
vt 0.4249 0.3703
vt 0.3535 0.3703
vt 0.3535 0.2989
vt 0.1311 0.4724
vt 0.0280 0.4571
vt 0.0303 0.1525
vt 0.1343 0.0268
vt 0.0308 0.0393
vt 0.3456 0.3469
vt 0.0280 0.2755
vt 0.4622 0.2796
vt 0.3495 0.1405
vt 0.3835 0.4571
vt 0.3500 0.0257
vt 0.4249 0.2989
vt 0.0280 0.3858
vt 0.0289 0.1106
vt 0.0280 0.2238
vt 0.4378 0.1834
vt 0.4740 0.1393
vt 0.4284 0.1393
vt 0.4874 0.0670
vt 0.4150 0.0670
vt 0.4981 0.0034
vt 0.4042 0.0034
vt 0.4646 0.1834
vn -1.0000 0.0000 0.0000
vn 0.0000 -0.9969 0.0786
vn 1.0000 0.0000 0.0000
vn 0.0000 -0.9889 0.1483
vn 0.0000 -1.0000 0.0000
vn 0.0000 1.0000 0.0000
vn 0.0000 -0.4226 -0.9063
vn 0.9916 0.0000 -0.1296
vn 0.0000 0.9357 -0.3528
vn -0.9916 0.0000 -0.1296
vn 0.0000 0.0000 1.0000
vn 0.0000 0.9889 0.1483
vn 0.9889 0.0000 0.1483
vn -0.9889 0.0000 0.1483
vn 0.9829 -0.0778 -0.1669
vn -0.9829 -0.0778 -0.1669
vn 0.0000 0.9344 0.3562
vn 0.0000 0.9988 -0.0499
vn 0.0000 0.9948 0.1015
usemtl None
s off
f 125/267/139 126/268/139 122/269/139
f 123/270/140 122/271/140 129/272/140
f 127/273/141 128/274/141 124/275/141
f 121/276/142 124/277/142 134/278/142
f 121/276/143 122/271/143 123/270/143
f 128/279/144 127/280/144 126/281/144
f 131/282/145 132/283/145 130/284/145
f 127/273/146 123/285/146 132/286/146
f 126/281/147 127/280/147 132/287/147
f 122/269/148 126/268/148 131/288/148
f 136/289/149 135/290/149 133/291/149
f 128/279/150 125/292/150 135/293/150
f 124/275/151 128/274/151 134/294/151
f 125/267/152 121/295/152 133/296/152
f 121/295/139 125/267/139 122/269/139
f 130/297/140 123/270/140 129/272/140
f 123/285/141 127/273/141 124/275/141
f 133/298/142 121/276/142 134/278/142
f 124/277/143 121/276/143 123/270/143
f 125/292/144 128/279/144 126/281/144
f 129/299/145 131/282/145 130/284/145
f 123/285/153 130/300/153 132/286/153
f 131/301/147 126/281/147 132/287/147
f 129/302/154 122/269/154 131/288/154
f 134/303/149 136/289/149 133/291/149
f 136/304/150 128/279/150 135/293/150
f 135/305/152 125/267/152 133/296/152
f 128/274/151 136/306/151 134/294/151
f 135/307/155 138/308/155 137/309/155
f 137/309/156 140/310/156 139/311/156
f 139/311/157 142/312/157 141/313/157
f 136/314/155 138/308/155 135/307/155
f 138/308/156 140/310/156 137/309/156
f 140/310/157 142/312/157 139/311/157
