# Blender v2.78 (sub 0) OBJ File: 'abaia.blend'
# www.blender.org
mtllib abaia.mtl
o Head
v -0.210000 0.057876 0.308924
v -0.210000 0.484261 0.259977
v -0.189000 0.070645 -0.060000
v -0.189000 0.414032 -0.060000
v 0.210000 0.057876 0.308924
v 0.210000 0.484261 0.259977
v 0.189000 0.070645 -0.060000
v 0.189000 0.414032 -0.060000
v 0.000000 0.040000 -0.060000
v 0.000000 0.460000 -0.060000
v -0.000000 0.027231 0.308924
v 0.000000 0.530229 0.259977
v -0.168000 0.097513 0.532389
v -0.168000 0.412423 0.633221
v 0.168000 0.412423 0.633221
v 0.168000 0.097513 0.532389
v -0.000000 0.066867 0.532389
v 0.000000 0.458391 0.633221
v -0.134400 0.118749 0.806744
v -0.134400 0.241547 0.839906
v 0.134400 0.241547 0.839906
v 0.134400 0.118749 0.806744
v -0.000000 0.101298 0.834476
v 0.000000 0.274320 0.863250
v 0.000000 0.660000 -0.060000
v 0.000000 0.730229 0.259977
v 0.000000 0.658391 0.633221
v 0.000000 -0.160000 -0.060000
v -0.000000 -0.172769 0.308924
v -0.000000 -0.133133 0.532389
vt 0.7705 0.7817
vt 0.7754 0.6775
vt 0.8452 0.7006
vt 0.8496 0.7643
vt 0.9998 0.4313
vt 0.9779 0.5723
vt 0.9380 0.5243
vt 0.9424 0.4607
vt 0.8683 0.5474
vt 0.8634 0.4433
vt 0.7036 0.7813
vt 0.6799 0.6900
vt 0.8713 0.3634
vt 0.8851 0.6526
vt 0.7784 0.6127
vt 0.8713 0.6122
vt 0.9069 0.7937
vt 0.7785 0.8615
vt 0.6855 0.8426
vt 0.6594 0.6438
vt 0.6287 0.7332
vt 0.5894 0.7115
vt 0.7728 0.5349
vt 0.7522 0.5812
vt 0.6822 0.5135
vt 0.7215 0.4917
vt 0.7965 0.4437
vt 0.7783 0.3824
vt 0.5894 0.7806
vt 0.6326 0.7634
vt 0.7255 0.4616
vt 0.6822 0.4444
vt 0.1791 0.8222
vt 0.1897 0.8771
vt 0.0836 0.8771
vt 0.0730 0.8222
vt 0.0002 0.7839
vt 0.2632 0.7861
vt 0.2737 0.8409
vt 0.3585 0.8508
vt 0.2742 0.8604
vt 0.3585 0.7950
vt 0.4209 0.8397
vt 0.4209 0.7839
vt 0.5240 0.7875
vt 0.5240 0.8433
vn -0.9982 -0.0038 -0.0605
vn 0.0000 0.0000 -1.0000
vn 0.9982 -0.0038 -0.0605
vn -0.9903 -0.0097 0.1389
vn 0.1517 -0.9877 -0.0385
vn -0.2192 0.9515 -0.2160
vn 0.2192 0.9515 -0.2160
vn -0.1517 -0.9877 -0.0385
vn -0.1572 -0.9697 0.1868
vn -0.2418 0.7438 0.6231
vn 0.2418 0.7438 0.6231
vn 0.1572 -0.9697 0.1868
vn 0.2317 0.9527 0.1964
vn -0.2317 0.9527 0.1964
vn 0.9903 -0.0097 0.1389
vn -0.1717 -0.2019 0.9642
vn 0.1717 -0.2019 0.9642
vn 0.9912 -0.0387 0.1264
vn -0.1655 -0.9807 0.1044
vn 0.1655 -0.9807 0.1044
vn -0.9912 -0.0387 0.1264
vn 1.0000 0.0000 -0.0000
usemtl abaia
s off
f 1/1/1 2/2/1 4/3/1 3/4/1
f 9/5/2 10/6/2 8/7/2 7/8/2
f 7/8/3 8/7/3 6/9/3 5/10/3
f 2/2/4 1/1/4 13/11/4 14/12/4
f 9/5/5 7/8/5 5/10/5 11/13/5
f 10/14/6 4/3/6 2/2/6 12/15/6
f 8/7/7 10/6/7 12/16/7 6/9/7
f 3/4/8 9/17/8 11/18/8 1/1/8
f 1/1/9 11/18/9 17/19/9 13/11/9
f 3/4/2 4/3/2 10/14/2 9/17/2
f 18/20/10 14/12/10 20/21/10 24/22/10
f 15/23/11 18/24/11 24/25/11 21/26/11
f 11/13/12 5/10/12 16/27/12 17/28/12
f 6/9/13 12/16/13 18/24/13 15/23/13
f 12/15/14 2/2/14 14/12/14 18/20/14
f 5/10/15 6/9/15 15/23/15 16/27/15
f 23/29/16 24/22/16 20/21/16 19/30/16
f 22/31/17 21/26/17 24/25/17 23/32/17
f 16/27/18 15/23/18 21/26/18 22/31/18
f 13/11/19 17/19/19 23/29/19 19/30/19
f 17/28/20 16/27/20 22/31/20 23/32/20
f 14/12/21 13/11/21 19/30/21 20/21/21
f 12/33/22 26/34/22 27/35/22 18/36/22
f 24/37/22 18/36/22 27/35/22
f 12/33/22 10/38/22 25/39/22 26/34/22
f 17/40/22 23/41/22 30/42/22
f 11/43/22 17/40/22 30/42/22 29/44/22
f 11/43/22 29/44/22 28/45/22 9/46/22
o Body
v -0.150000 0.100000 0.150000
v -0.150000 0.400000 0.150000
v -0.168374 0.171744 -0.578325
v -0.192225 0.407151 -0.538147
v 0.150000 0.100000 0.150000
v 0.150000 0.400000 0.150000
v 0.070136 0.193196 -0.562427
v 0.046285 0.428604 -0.522249
v -0.137306 0.467919 -1.081774
v -0.125582 0.288220 -1.015178
v 0.065226 0.305382 -1.002460
v 0.053502 0.485081 -1.069055
v 0.000000 0.066801 0.150000
v -0.072970 0.456184 -0.530198
v -0.049119 0.149271 -0.570376
v 0.000000 0.438307 0.150000
v -0.030178 0.263602 -1.008819
v -0.041902 0.514806 -1.075414
v -0.072970 0.656184 -0.530198
v 0.000000 0.638307 0.150000
v -0.041902 0.710550 -1.107337
v 0.000000 -0.133199 0.150000
v -0.049119 -0.050729 -0.570376
v -0.030178 0.066666 -0.987368
vt 0.0580 0.1755
vt 0.0386 0.1285
vt 0.1865 0.0780
vt 0.2101 0.1428
vt 0.1898 0.6018
vt 0.1903 0.5653
vt 0.3567 0.5826
vt 0.3568 0.6122
vt 0.2051 0.4915
vt 0.0341 0.5296
vt 0.0415 0.4816
vt 0.0294 0.2143
vt 0.0002 0.1073
vt 0.2125 0.4542
vt 0.0002 0.4379
vt 0.1733 0.0403
vt 0.3383 0.0322
vt 0.3355 0.0892
vt 0.3438 0.5257
vt 0.2184 0.1778
vt 0.3459 0.1187
vt 0.3472 0.4928
vt 0.0002 0.5635
vt 0.3352 0.0002
vt 0.0243 0.2148
vt 0.1945 0.3016
vt 0.1704 0.3520
vt 0.0002 0.2652
vt 0.3250 0.3821
vt 0.3095 0.4353
vt 0.3079 0.7834
vt 0.1937 0.7287
vt 0.2044 0.6739
vt 0.3125 0.7283
vt 0.0002 0.6675
vt 0.0109 0.6127
vt 0.1978 0.5507
vt 0.1594 0.5649
vt 0.1619 0.4649
vt 0.1979 0.4769
vt 0.1236 0.5507
vt 0.1236 0.4768
vn -0.9981 -0.0475 0.0401
vn 0.2495 0.9621 0.1102
vn 0.9905 0.0536 -0.1266
vn 0.0000 0.0000 1.0000
vn 0.2765 -0.9506 -0.1414
vn -0.3094 0.9499 0.0434
vn -0.9891 -0.0921 -0.1152
vn 0.9961 0.0865 0.0171
vn -0.1900 -0.9459 -0.2628
vn 0.3742 -0.8994 -0.2259
vn 0.2376 0.9714 0.0023
vn -0.1989 -0.9754 -0.0946
vn -0.4108 0.9092 0.0673
vn 0.9943 0.0000 -0.1067
vn 0.9984 0.0045 0.0557
vn 0.9990 0.0024 0.0449
vn 0.9977 0.0000 -0.0680
vn 0.0972 -0.2891 -0.9524
vn 0.0819 -0.2902 -0.9534
usemtl abaia
s off
f 31/47/23 32/48/23 34/49/23 33/50/23
f 44/51/24 38/52/24 42/53/24 48/54/24
f 37/55/25 38/52/25 36/56/25 35/57/25
f 43/58/26 46/59/26 32/48/26 31/47/26
f 45/60/27 37/55/27 35/57/27 43/61/27
f 44/62/28 34/49/28 32/48/28 46/59/28
f 33/50/29 34/49/29 39/63/29 40/64/29
f 38/52/30 37/55/30 41/65/30 42/53/30
f 45/66/31 33/50/31 40/64/31 47/67/31
f 37/55/32 45/60/32 47/68/32 41/65/32
f 38/52/33 44/51/33 46/69/33 36/56/33
f 33/50/34 45/66/34 43/58/34 31/47/34
f 35/57/26 36/56/26 46/69/26 43/61/26
f 34/49/35 44/62/35 48/70/35 39/63/35
f 46/71/36 44/72/36 49/73/36 50/74/36
f 48/75/37 51/76/37 49/73/37 44/72/37
f 47/77/38 45/78/38 53/79/38 54/80/38
f 43/81/39 52/82/39 53/79/39 45/78/39
f 39/83/40 48/84/40 47/85/40 40/86/40
f 48/84/41 42/87/41 41/88/41 47/85/41
o Tail01
v -0.137306 0.467919 -1.081774
v -0.125582 0.288220 -1.015178
v 0.065226 0.305382 -1.002460
v 0.053502 0.485081 -1.069055
v -0.078765 0.397287 -1.266294
v -0.093412 0.264915 -1.156190
v 0.077879 0.264915 -1.133403
v 0.092526 0.397287 -1.243507
v -0.023182 0.168505 -1.487550
v -0.036996 0.108025 -1.383710
v 0.082907 0.108025 -1.367759
v 0.096721 0.168505 -1.471599
v -0.030178 0.263602 -1.008819
v -0.041902 0.514806 -1.075414
v -0.007766 0.239377 -1.132027
v 0.006881 0.429210 -1.265541
v 0.022955 0.082487 -1.362966
v 0.036769 0.185530 -1.496600
v -0.041902 0.710550 -1.107337
v 0.006881 0.588775 -1.359180
v 0.036769 0.302532 -1.590238
v -0.030178 0.066666 -0.987368
v -0.007766 0.054700 -1.092188
v 0.022955 -0.071545 -1.283288
vt 0.3568 0.6122
vt 0.3567 0.5826
vt 0.4098 0.5664
vt 0.4166 0.5927
vt 0.3875 0.5214
vt 0.4702 0.4998
vt 0.4906 0.5287
vt 0.3355 0.0892
vt 0.3383 0.0322
vt 0.3978 0.0284
vt 0.3837 0.0821
vt 0.3438 0.5257
vt 0.3459 0.1187
vt 0.3860 0.1125
vt 0.4819 0.0909
vt 0.4805 0.1147
vt 0.5022 0.5451
vt 0.4993 0.0533
vt 0.4009 0.0002
vt 0.5049 0.0331
vt 0.3847 0.4950
vt 0.4685 0.4798
vt 0.3472 0.4928
vt 0.3352 0.0002
vt 0.4730 0.3509
vt 0.4822 0.3917
vt 0.3888 0.4353
vt 0.3848 0.3838
vt 0.3095 0.4353
vt 0.3250 0.3821
vt 0.3435 0.7834
vt 0.3079 0.7834
vt 0.3125 0.7283
vt 0.3426 0.7307
vt 0.4158 0.7529
vt 0.4023 0.7064
vt 0.3396 0.6027
vt 0.3373 0.5024
vt 0.3757 0.5144
vt 0.3756 0.5885
vt 0.3011 0.5143
vt 0.3011 0.5885
vt 0.4222 0.5664
vt 0.3981 0.5569
vt 0.3981 0.5102
vt 0.4216 0.5010
vt 0.4460 0.5112
vt 0.4450 0.5579
vn 0.3503 0.8758 -0.3321
vn 0.9952 -0.0648 0.0739
vn -0.9646 -0.1231 -0.2333
vn 0.9880 0.0690 0.1382
vn -0.2829 -0.9525 0.1129
vn -0.4167 -0.7851 0.4582
vn 0.4226 0.6472 -0.6345
vn -0.9799 -0.0648 -0.1888
vn -0.2574 0.6435 -0.7208
vn 0.2972 -0.7809 0.5494
vn 0.3284 -0.9035 0.2753
vn -0.3430 0.8280 -0.4435
vn 0.9962 0.0491 0.0725
vn 0.9804 0.0656 0.1856
vn 0.9817 0.0302 0.1882
vn 0.9923 0.0412 0.1168
vn -0.0819 0.2902 0.9534
vn -0.0972 0.2891 0.9524
vn 0.1508 -0.8223 -0.5487
vn -0.0031 -0.8234 -0.5674
usemtl abaia
s off
f 68/89/42 58/90/42 62/91/42 70/92/42
f 62/91/43 61/93/43 65/94/43 66/95/43
f 56/96/44 55/97/44 59/98/44 60/99/44
f 58/90/45 57/100/45 61/93/45 62/91/45
f 67/101/46 56/96/46 60/99/46 69/102/46
f 69/102/47 60/99/47 64/103/47 71/104/47
f 70/92/48 62/91/48 66/95/48 72/105/48
f 60/99/49 59/98/49 63/106/49 64/103/49
f 59/98/50 70/107/50 72/108/50 63/106/50
f 61/93/51 69/109/51 71/110/51 65/94/51
f 57/100/52 67/111/52 69/109/52 61/93/52
f 55/97/53 68/112/53 70/107/53 59/98/53
f 72/113/54 75/114/54 74/115/54 70/116/54
f 70/116/55 74/115/55 73/117/55 68/118/55
f 69/119/56 67/120/56 76/121/56 77/122/56
f 71/123/57 69/119/57 77/122/57 78/124/57
f 68/125/58 67/126/58 57/127/58 58/128/58
f 56/129/59 67/126/59 68/125/59 55/130/59
f 72/131/60 66/132/60 65/133/60 71/134/60
f 64/135/61 63/136/61 72/131/61 71/134/61
o Tail02
v -0.023182 0.168505 -1.487550
v -0.036996 0.108025 -1.383710
v 0.082907 0.108025 -1.367759
v 0.096721 0.168505 -1.471599
v -0.036288 -0.091817 -1.599472
v -0.036288 -0.151268 -1.557844
v 0.036288 -0.151268 -1.557844
v 0.036288 -0.091817 -1.599472
v -0.047807 -0.345866 -1.906319
v 0.022955 0.082487 -1.362966
v 0.036769 0.185530 -1.496600
v -0.000000 -0.174252 -1.534860
v 0.000000 -0.074792 -1.616497
v 0.036769 0.302532 -1.590238
v -0.000000 0.054979 -1.693111
v 0.022955 -0.071545 -1.283288
v -0.000000 -0.306832 -1.430666
vt 0.5022 0.5451
vt 0.4906 0.5287
vt 0.5632 0.4767
vt 0.5707 0.4880
vt 0.5838 0.0984
vt 0.5867 0.0840
vt 0.7162 0.1138
vt 0.4819 0.0909
vt 0.4993 0.0533
vt 0.5843 0.1222
vt 0.4702 0.4998
vt 0.5588 0.4550
vt 0.4805 0.1147
vt 0.5820 0.1383
vt 0.6817 0.4358
vt 0.5557 0.4404
vt 0.4685 0.4798
vt 0.5049 0.0331
vt 0.5357 0.3000
vt 0.6424 0.2673
vt 0.5391 0.3420
vt 0.4822 0.3917
vt 0.4730 0.3509
vt 0.4771 0.6919
vt 0.4158 0.7529
vt 0.4023 0.7064
vt 0.4558 0.6499
vt 0.5889 0.6649
vt 0.3979 0.5877
vt 0.4007 0.4950
vt 0.4337 0.5086
vt 0.4324 0.5749
vt 0.3658 0.5088
vt 0.3658 0.5750
vn 0.4699 0.3063 -0.8279
vn -0.5504 0.6531 -0.5201
vn -0.9973 0.0522 -0.0516
vn 0.9838 -0.1727 -0.0490
vn -0.5474 -0.4497 0.7058
vn -0.9996 0.0166 0.0238
vn 0.9783 -0.1188 -0.1697
vn 0.6283 -0.7339 0.2582
vn 0.4749 -0.5474 0.6891
vn -0.3703 0.4072 -0.8349
vn 0.5525 0.5614 -0.6162
vn -0.6554 -0.6500 0.3847
vn 0.9925 -0.0623 -0.1055
vn 0.9881 -0.0875 -0.1268
vn 0.9963 -0.0462 -0.0720
vn 0.9929 -0.0737 -0.0937
vn -0.1508 0.8223 0.5487
vn 0.0031 0.8234 0.5674
usemtl abaia
s off
f 89/137/62 82/138/62 86/139/62 91/140/62
f 83/141/63 91/142/63 87/143/63
f 80/144/64 79/145/64 83/141/64 84/146/64
f 82/138/65 81/147/65 85/148/65 86/139/65
f 88/149/66 80/144/66 84/146/66 90/150/66
f 84/146/67 83/141/67 87/143/67
f 86/139/68 85/148/68 87/151/68
f 87/151/69 85/148/69 90/152/69
f 81/147/70 88/153/70 90/152/70 85/148/70
f 79/145/71 89/154/71 91/142/71 83/141/71
f 91/140/72 86/139/72 87/151/72
f 90/150/73 84/146/73 87/143/73
f 91/155/74 87/156/74 93/157/74
f 91/155/75 93/157/75 92/158/75 89/159/75
f 90/160/76 88/161/76 94/162/76 95/163/76
f 90/160/77 95/163/77 87/164/77
f 89/165/78 88/166/78 81/167/78 82/168/78
f 80/169/79 88/166/79 89/165/79 79/170/79
