# Blender v2.79 (sub 0) OBJ File: 'kobold.blend'
# www.blender.org
mtllib kobold.mtl
o RightLeg
v -0.100000 0.200000 -0.030000
v -0.100000 0.200000 -0.150000
v -0.220000 0.200000 -0.150000
v -0.220000 0.200000 -0.030000
v -0.120000 0.280685 -0.000459
v -0.120000 0.321727 -0.113222
v -0.200000 0.359315 -0.099541
v -0.200000 0.318273 0.013222
v -0.128000 0.130000 -0.048000
v -0.128000 0.130000 -0.152000
v -0.222000 0.190000 -0.152000
v -0.222000 0.190000 -0.048000
v -0.138000 0.000000 -0.048000
v -0.138000 0.000000 -0.132000
v -0.222000 0.000000 -0.132000
v -0.222000 0.000000 -0.048000
vt 0.680833 0.854964
vt 0.561144 0.864206
vt 0.667821 0.772449
vt 0.966000 0.862430
vt 0.884980 0.897635
vt 0.880172 0.737969
vt 0.762507 0.893059
vt 0.772568 0.774933
vt 0.783418 0.760420
vt 0.881569 0.988921
vt 0.687724 0.696489
vt 0.585094 0.667102
vt 0.629533 0.554193
vt 0.563187 0.734608
vt 0.987885 0.738314
vt 0.959109 0.673844
vt 0.773573 0.496744
vt 0.846831 0.492195
vt 0.851380 0.565453
vt 0.878408 0.729125
vt 0.778122 0.570002
vt 0.759096 0.984345
vt 0.704405 0.568216
vt 0.929747 0.552659
vn -0.9740 -0.2130 -0.0775
vn 0.0200 -0.3042 0.9524
vn 0.9876 -0.1474 -0.0536
vn 0.0006 0.3432 -0.9393
vn 0.9806 -0.1961 0.0000
vn -0.4472 -0.8405 -0.3059
vn -0.9971 0.0767 0.0000
vn -0.9285 0.3714 0.0000
vn 0.0000 -0.0286 0.9996
vn 0.0000 0.2490 -0.9685
vn 0.0000 1.0000 0.0000
vn 0.0667 0.1045 0.9923
vn 1.0000 0.0000 0.0000
vn 0.0000 0.0000 -1.0000
vn -0.9868 -0.1621 0.0000
vn 0.0000 -0.2892 0.9573
vn 0.9922 -0.1246 0.0000
vn 0.0000 0.3438 -0.9390
vn -0.1108 -0.1736 0.9786
vn 0.4758 0.7454 -0.4670
vn 0.0000 0.1521 0.9884
usemtl None
s off
f 5/1/1 6/2/1 1/3/1
f 6/4/2 7/5/2 3/6/2
f 7/5/3 8/7/3 4/8/3
f 8/7/4 5/1/4 4/8/4
f 3/6/5 4/8/5 12/9/5
f 8/7/6 7/5/6 6/10/6
f 9/11/7 10/12/7 14/13/7
f 1/3/8 2/14/8 9/11/8
f 2/15/9 3/6/9 10/16/9
f 4/8/10 1/3/10 9/11/10
f 13/17/11 14/18/11 15/19/11
f 10/16/12 11/20/12 15/19/12
f 11/20/13 12/9/13 15/19/13
f 12/9/14 9/11/14 16/21/14
f 6/2/15 2/14/15 1/3/15
f 2/15/16 6/4/16 3/6/16
f 3/6/17 7/5/17 4/8/17
f 5/1/18 1/3/18 4/8/18
f 11/20/5 3/6/5 12/9/5
f 5/22/6 8/7/6 6/10/6
f 13/23/7 9/11/7 14/13/7
f 2/14/8 10/12/8 9/11/8
f 3/6/19 11/20/19 10/16/19
f 12/9/20 4/8/20 9/11/20
f 16/21/11 13/17/11 15/19/11
f 14/24/21 10/16/21 15/19/21
f 12/9/13 16/21/13 15/19/13
f 9/11/14 13/23/14 16/21/14
o RightArm
v -0.114000 0.480823 0.307100
v -0.114000 0.576823 0.140823
v -0.186000 0.576823 0.140823
v -0.186000 0.480823 0.307100
v -0.114000 0.543177 0.343100
v -0.114000 0.639177 0.176823
v -0.186000 0.639177 0.176823
v -0.186000 0.543177 0.343100
vt 0.240749 0.271198
vt 0.240749 0.089410
vt 0.172579 0.089410
vt 0.309193 0.089450
vt 0.241022 0.089451
vt 0.241022 0.021280
vt 0.240849 0.089410
vt 0.240849 0.271198
vt 0.172678 0.271198
vt 0.241022 0.271239
vt 0.309193 0.271239
vt 0.309193 0.339409
vt 0.309193 0.521198
vt 0.241022 0.521198
vt 0.172578 0.271198
vt 0.309192 0.021280
vt 0.172678 0.089410
vt 0.241022 0.339410
vn -1.0000 0.0000 0.0000
vn 0.0000 -0.5000 0.8660
vn 1.0000 -0.0000 0.0000
vn 0.0000 0.5000 -0.8660
vn 0.0000 0.8660 0.5000
vn 0.0000 -0.8660 -0.5000
usemtl None
s off
f 21/25/22 22/26/22 18/27/22
f 22/28/23 23/29/23 19/30/23
f 23/31/24 24/32/24 20/33/24
f 24/34/25 21/35/25 17/36/25
f 17/36/26 18/37/26 19/38/26
f 24/34/27 23/29/27 22/28/27
f 17/39/22 21/25/22 18/27/22
f 18/40/23 22/28/23 19/30/23
f 19/41/24 23/31/24 20/33/24
f 20/42/25 24/34/25 17/36/25
f 20/42/26 17/36/26 19/38/26
f 21/35/27 24/34/27 22/28/27
o Tail
v -0.072000 0.257717 -0.116968
v -0.072000 0.324968 -0.324283
v 0.072000 0.324968 -0.324283
v 0.072000 0.257717 -0.116968
v -0.072000 0.393032 -0.067717
v -0.072000 0.460283 -0.275032
v 0.072000 0.460283 -0.275032
v 0.072000 0.393032 -0.067717
v -0.050634 0.485217 -0.554195
v 0.050634 0.485217 -0.554195
v -0.050634 0.571316 -0.500885
v 0.050634 0.571316 -0.500885
v -0.029953 0.791975 -0.677169
v 0.029953 0.791975 -0.677169
v -0.029953 0.789130 -0.617331
v 0.029953 0.789130 -0.617331
v 0.000000 1.285983 -0.623688
vt 0.829627 0.061302
vt 0.865376 0.118060
vt 0.853603 0.012890
vt 0.910628 0.082926
vt 0.947932 0.193772
vt 0.812072 0.140822
vt 0.782693 0.051295
vt 0.831375 0.058594
vt 0.777421 0.063764
vt 0.860370 0.014414
vt 0.912611 0.084508
vt 0.866009 0.110153
vt 0.815899 0.145582
vt 0.912498 0.215069
vt 0.946552 0.331683
vt 0.905137 0.204829
vt 0.946476 0.195849
vt 0.873863 0.232297
vt 0.903989 0.325739
vt 0.873692 0.228842
vt 0.923434 0.327623
vt 0.946476 0.328817
vt 0.902686 0.514300
vt 0.925983 0.323792
vt 0.901942 0.511064
vt 0.901265 0.323907
vn -1.0000 0.0000 0.0000
vn -0.9969 0.0269 -0.0739
vn 1.0000 -0.0000 0.0000
vn 0.0000 -0.3420 0.9397
vn 0.0000 -0.9512 -0.3086
vn 0.0000 0.9512 0.3086
vn -0.9970 0.0408 -0.0659
vn 0.9969 0.0269 -0.0739
vn 0.0000 -0.8204 -0.5718
vn 0.0000 0.8974 0.4412
vn 0.0000 0.4715 0.8819
vn 0.9970 0.0408 -0.0659
vn 0.0000 -0.3721 -0.9282
vn 0.0000 0.1076 -0.9942
vn -0.9982 0.0602 0.0029
vn 0.0000 0.0128 0.9999
vn 0.9982 0.0602 0.0029
vn -0.9964 0.0447 -0.0723
vn -0.9953 0.0970 0.0046
vn 0.9964 0.0447 -0.0723
vn 0.9953 0.0970 0.0046
usemtl None
s off
f 29/43/28 30/44/28 25/45/28
f 26/46/29 30/44/29 33/47/29
f 31/48/30 32/49/30 28/50/30
f 32/51/31 29/43/31 25/45/31
f 25/52/32 26/53/32 27/54/32
f 32/51/33 31/55/33 30/44/33
f 33/47/34 35/56/34 37/57/34
f 31/48/35 27/54/35 34/58/35
f 27/54/36 26/53/36 33/59/36
f 30/44/37 31/55/37 36/60/37
f 35/56/38 36/60/38 40/61/38
f 36/62/39 34/58/39 38/63/39
f 34/58/40 33/59/40 38/63/40
f 38/63/41 37/64/41 41/65/41
f 37/57/42 39/66/42 41/67/42
f 39/66/43 40/61/43 41/67/43
f 40/68/44 38/63/44 41/65/44
f 30/44/28 26/46/28 25/45/28
f 30/44/45 35/56/45 33/47/45
f 27/54/30 31/48/30 28/50/30
f 28/50/31 32/49/31 25/52/31
f 28/50/32 25/52/32 27/54/32
f 29/43/33 32/51/33 30/44/33
f 35/56/46 39/66/46 37/57/46
f 36/62/47 31/48/47 34/58/47
f 34/58/36 27/54/36 33/59/36
f 35/56/37 30/44/37 36/60/37
f 39/66/38 35/56/38 40/61/38
f 40/68/48 36/62/48 38/63/48
f 33/59/40 37/64/40 38/63/40
o LeftArm
v 0.114000 0.480823 0.307100
v 0.114000 0.576823 0.140823
v 0.186000 0.576823 0.140823
v 0.186000 0.480823 0.307100
v 0.114000 0.543177 0.343100
v 0.114000 0.639177 0.176823
v 0.186000 0.639177 0.176823
v 0.186000 0.543177 0.343100
vt 0.240749 0.271198
vt 0.240749 0.089410
vt 0.172579 0.089410
vt 0.309193 0.089450
vt 0.241022 0.089451
vt 0.241022 0.021280
vt 0.240849 0.089410
vt 0.240849 0.271198
vt 0.172678 0.271198
vt 0.241022 0.271239
vt 0.309193 0.271239
vt 0.309193 0.339409
vt 0.309193 0.521198
vt 0.241022 0.521198
vt 0.172578 0.271198
vt 0.309192 0.021280
vt 0.172678 0.089410
vt 0.241022 0.339410
vn -1.0000 0.0000 0.0000
vn 0.0000 0.5000 -0.8660
vn 1.0000 0.0000 0.0000
vn 0.0000 -0.5000 0.8660
vn 0.0000 -0.8660 -0.5000
vn 0.0000 0.8660 0.5000
usemtl None
s off
f 46/69/49 47/70/49 43/71/49
f 47/72/50 48/73/50 44/74/50
f 48/75/51 49/76/51 45/77/51
f 49/78/52 46/79/52 42/80/52
f 42/80/53 43/81/53 44/82/53
f 49/78/54 48/73/54 47/72/54
f 42/83/49 46/69/49 43/71/49
f 43/84/50 47/72/50 44/74/50
f 44/85/51 48/75/51 45/77/51
f 45/86/52 49/78/52 42/80/52
f 45/86/53 42/80/53 44/82/53
f 46/79/54 49/78/54 47/72/54
o LeftLeg
v 0.100000 0.200000 -0.030000
v 0.100000 0.200000 -0.150000
v 0.220000 0.200000 -0.150000
v 0.220000 0.200000 -0.030000
v 0.120000 0.280685 -0.000459
v 0.120000 0.321727 -0.113222
v 0.200000 0.359315 -0.099541
v 0.200000 0.318273 0.013222
v 0.128000 0.130000 -0.048000
v 0.128000 0.130000 -0.152000
v 0.222000 0.190000 -0.152000
v 0.222000 0.190000 -0.048000
v 0.138000 0.000000 -0.048000
v 0.138000 0.000000 -0.132000
v 0.222000 0.000000 -0.132000
v 0.222000 0.000000 -0.048000
vt 0.680833 0.854964
vt 0.561144 0.864206
vt 0.667821 0.772449
vt 0.966000 0.862430
vt 0.884980 0.897635
vt 0.880172 0.737969
vt 0.762507 0.893059
vt 0.772568 0.774933
vt 0.783418 0.760420
vt 0.881569 0.988921
vt 0.687724 0.696489
vt 0.585094 0.667102
vt 0.629533 0.554193
vt 0.563187 0.734608
vt 0.987885 0.738314
vt 0.959109 0.673844
vt 0.773573 0.496744
vt 0.846831 0.492195
vt 0.851380 0.565453
vt 0.878408 0.729125
vt 0.778122 0.570002
vt 0.759096 0.984345
vt 0.704405 0.568216
vt 0.929747 0.552659
vn -0.9740 0.2130 0.0775
vn 0.0200 0.3042 -0.9524
vn 0.9876 0.1474 0.0536
vn 0.0006 -0.3432 0.9393
vn 0.9806 0.1961 0.0000
vn -0.4472 0.8405 0.3059
vn -0.9971 -0.0767 0.0000
vn -0.9285 -0.3714 0.0000
vn 0.0000 0.0286 -0.9996
vn 0.0000 -0.2490 0.9685
vn 0.0000 -1.0000 0.0000
vn 0.0667 -0.1045 -0.9923
vn 1.0000 0.0000 0.0000
vn 0.0000 0.0000 1.0000
vn -0.9868 0.1621 0.0000
vn 0.0000 0.2892 -0.9573
vn 0.9922 0.1246 0.0000
vn 0.0000 -0.3438 0.9390
vn -0.1108 0.1736 -0.9786
vn 0.4758 -0.7454 0.4670
vn 0.0000 -0.1521 -0.9884
usemtl None
s off
f 54/87/55 55/88/55 50/89/55
f 55/90/56 56/91/56 52/92/56
f 56/91/57 57/93/57 53/94/57
f 57/93/58 54/87/58 53/94/58
f 52/92/59 53/94/59 61/95/59
f 57/93/60 56/91/60 55/96/60
f 58/97/61 59/98/61 63/99/61
f 50/89/62 51/100/62 58/97/62
f 51/101/63 52/92/63 59/102/63
f 53/94/64 50/89/64 58/97/64
f 62/103/65 63/104/65 64/105/65
f 59/102/66 60/106/66 64/105/66
f 60/106/67 61/95/67 64/105/67
f 61/95/68 58/97/68 65/107/68
f 55/88/69 51/100/69 50/89/69
f 51/101/70 55/90/70 52/92/70
f 52/92/71 56/91/71 53/94/71
f 54/87/72 50/89/72 53/94/72
f 60/106/59 52/92/59 61/95/59
f 54/108/60 57/93/60 55/96/60
f 62/109/61 58/97/61 63/99/61
f 51/100/62 59/98/62 58/97/62
f 52/92/73 60/106/73 59/102/73
f 61/95/74 53/94/74 58/97/74
f 65/107/65 62/103/65 64/105/65
f 63/110/75 59/102/75 64/105/75
f 61/95/67 65/107/67 64/105/67
f 58/97/68 62/109/68 65/107/68
o Head
v 0.100000 0.700000 0.210000
v 0.100000 0.700000 0.490000
v -0.100000 0.700000 0.490000
v -0.100000 0.700000 0.210000
v 0.100000 0.940000 0.310000
v 0.100000 0.900000 0.490000
v -0.100000 0.900000 0.490000
v -0.100000 0.940000 0.310000
v -0.170000 0.713759 0.185420
v -0.170000 1.025159 0.185420
v 0.170000 0.713759 0.185420
v 0.170000 1.025159 0.185420
v 0.170000 0.713759 -0.014580
v -0.170000 0.713759 -0.014580
v 0.170000 1.025159 -0.014580
v -0.170000 1.025159 -0.014580
v -0.000000 0.700000 0.490000
v 0.000000 0.700000 0.210000
v -0.000000 0.900000 0.490000
v 0.000000 0.940000 0.310000
v 0.000000 0.895159 0.185420
v 0.000000 0.713759 0.185420
v 0.000000 0.713759 -0.014580
v 0.000000 0.895159 -0.014580
vt 0.346806 0.667015
vt 0.222728 0.653888
vt 0.237612 0.603833
vt 0.338291 0.593103
vt 0.237354 0.604358
vt 0.346585 0.667477
vt 0.222499 0.654422
vt 0.337386 0.703128
vt 0.337588 0.702660
vt 0.179455 0.702569
vt 0.337557 0.756114
vt 0.179253 0.703127
vt 0.179253 0.756581
vt 0.118368 0.557972
vt 0.166984 0.558044
vt 0.166880 0.629686
vt 0.118262 0.629627
vt 0.069636 0.629538
vt 0.069753 0.557897
vt 0.167279 0.776780
vt 0.118074 0.777775
vt 0.166787 0.726901
vt 0.068925 0.776811
vt 0.118157 0.727071
vt 0.069368 0.726762
vt 0.118091 0.818684
vt 0.201028 0.548913
vt 0.118382 0.548790
vt 0.118459 0.497617
vt 0.035737 0.548663
vt 0.035815 0.497490
vt 0.011935 0.803617
vt 0.118103 0.880781
vt 0.224286 0.803589
vt 0.194713 0.997356
vt 0.118107 0.986950
vt 0.041508 0.997356
vt 0.338555 0.592635
vt 0.179424 0.756023
vt 0.337386 0.756582
vt 0.233644 0.848625
vt 0.201104 0.497740
vt 0.002580 0.848643
vn 1.0000 -0.0000 0.0000
vn -1.0000 0.0000 -0.0000
vn -0.3712 -0.3571 0.8571
vn 0.3712 -0.3571 0.8571
vn 0.0000 -1.0000 0.0000
vn -0.0000 0.9762 0.2169
vn -0.0000 -0.0000 1.0000
vn 0.0000 0.9409 -0.3387
vn 0.0000 -0.8726 -0.4885
vn 0.6074 0.7944 0.0000
vn -0.6075 0.7944 0.0000
vn 0.0000 0.0000 -1.0000
vn -0.8718 -0.0000 0.4899
vn 0.8718 -0.0000 0.4899
vn 0.5955 0.7787 0.1977
vn -0.5955 0.7787 0.1977
vn 0.6075 0.7944 0.0000
usemtl None
s off
f 66/111/76 70/112/76 71/113/76
f 68/114/77 72/115/77 69/116/77
f 69/116/78 73/117/78 74/118/78
f 70/112/79 66/111/79 76/119/79
f 77/120/76 76/119/76 78/121/76
f 74/118/77 75/122/77 81/123/77
f 83/124/80 66/125/80 67/126/80
f 82/127/80 68/128/80 69/129/80
f 70/130/81 85/131/81 71/132/81
f 85/131/81 73/133/81 84/134/81
f 71/132/82 84/134/82 82/127/82
f 84/134/82 72/135/82 68/128/82
f 73/133/83 85/131/83 86/136/83
f 85/131/83 70/130/83 86/136/83
f 76/137/84 66/125/84 87/138/84
f 83/124/84 69/129/84 87/138/84
f 76/137/80 87/138/80 88/139/80
f 87/138/80 74/140/80 79/141/80
f 75/142/85 86/136/85 89/143/85
f 86/136/86 77/144/86 89/143/86
f 78/145/87 88/146/87 89/143/87
f 88/146/87 79/147/87 89/143/87
f 67/148/76 66/111/76 71/113/76
f 72/115/77 73/117/77 69/116/77
f 73/117/88 75/122/88 74/118/88
f 77/120/89 70/112/89 76/119/89
f 80/149/76 77/120/76 78/121/76
f 79/150/77 74/118/77 81/123/77
f 82/127/80 83/124/80 67/126/80
f 83/124/80 82/127/80 69/129/80
f 85/131/81 84/134/81 71/132/81
f 67/126/82 71/132/82 82/127/82
f 82/127/82 84/134/82 68/128/82
f 75/142/90 73/133/90 86/136/90
f 70/130/91 77/144/91 86/136/91
f 77/144/86 80/151/86 89/143/86
f 69/129/84 74/140/84 87/138/84
f 78/152/80 76/137/80 88/139/80
f 88/139/80 87/138/80 79/141/80
f 81/153/92 75/142/92 89/143/92
f 73/133/81 72/135/81 84/134/81
f 80/151/87 78/145/87 89/143/87
f 79/147/87 81/153/87 89/143/87
f 66/125/84 83/124/84 87/138/84
o Body
v 0.200000 0.529430 -0.126649
v 0.200000 0.436935 0.137632
v -0.200000 0.436935 0.137632
v -0.200000 0.529430 -0.126649
v 0.200000 0.812589 -0.027548
v 0.200000 0.720094 0.236733
v -0.200000 0.720094 0.236733
v -0.200000 0.812589 -0.027548
v -0.180000 0.441560 0.124418
v -0.180000 0.524805 -0.113435
v 0.180000 0.524805 -0.113435
v 0.180000 0.441560 0.124418
v -0.144000 0.166726 0.001532
v 0.144000 0.166726 0.001532
v 0.144000 0.233321 -0.188751
v -0.144000 0.233321 -0.188751
vt 0.546642 0.647536
vt 0.375091 0.647536
vt 0.546642 0.475984
vt 0.718826 0.305913
vt 0.718826 0.477465
vt 0.547274 0.305913
vt 0.546643 0.304432
vt 0.375091 0.304432
vt 0.546824 0.305914
vt 0.546824 0.477465
vt 0.718376 0.477465
vt 0.546642 0.819087
vt 0.375091 0.819087
vt 0.718376 0.305913
vt 0.709798 0.297336
vt 0.538065 0.827664
vt 0.555851 0.297336
vt 0.383668 0.295854
vt 0.538065 0.295855
vt 0.399108 0.123608
vt 0.710248 0.297336
vt 0.694808 0.125091
vt 0.383669 0.827665
vt 0.522626 0.999909
vt 0.555402 0.297336
vt 0.694359 0.125091
vt 0.522627 0.000091
vt 0.522626 0.123609
vt 0.547274 0.477465
vt 0.571291 0.125091
vt 0.375091 0.475984
vt 0.399109 0.999909
vt 0.570841 0.125091
vt 0.399109 0.000091
vn -0.0000 0.9439 0.3303
vn 1.0000 -0.0000 -0.0000
vn 0.0000 -0.3303 0.9439
vn -1.0000 0.0000 -0.0000
vn 0.0000 0.3303 -0.9439
vn -0.0000 -0.9439 -0.3303
vn -0.0000 -0.4082 0.9129
vn 0.9929 -0.1125 -0.0394
vn 0.0000 0.2502 -0.9682
vn -0.9929 -0.1125 -0.0394
usemtl None
s off
f 94/154/93 97/155/93 95/156/93
f 90/157/94 94/158/94 91/159/94
f 91/160/95 95/156/95 92/161/95
f 92/162/96 96/163/96 97/164/96
f 94/154/97 90/165/97 93/166/97
f 92/162/98 93/167/98 99/168/98
f 93/166/98 90/165/98 100/169/98
f 90/157/98 91/159/98 101/170/98
f 91/160/98 92/161/98 98/171/98
f 101/172/99 98/171/99 102/173/99
f 100/174/100 101/170/100 104/175/100
f 99/176/101 100/169/101 104/177/101
f 98/178/102 99/168/102 105/179/102
f 104/180/98 103/181/98 102/173/98
f 94/158/94 95/182/94 91/159/94
f 101/170/100 103/183/100 104/175/100
f 97/155/93 96/184/93 95/156/93
f 93/167/96 92/162/96 97/164/96
f 97/155/97 94/154/97 93/166/97
f 98/178/98 92/162/98 99/168/98
f 99/176/98 93/166/98 100/169/98
f 100/174/98 90/157/98 101/170/98
f 101/172/98 91/160/98 98/171/98
f 103/181/99 101/172/99 102/173/99
f 105/185/101 99/176/101 104/177/101
f 102/186/102 98/178/102 105/179/102
f 105/187/98 104/180/98 102/173/98
f 95/156/95 96/184/95 92/161/95
