# Blender v2.78 (sub 0) OBJ File: 'entarm.blend'
# www.blender.org
mtllib entarm.mtl
o Base
v 0.091164 -0.046579 0.126547
v 0.013764 -0.046579 0.113958
v -0.060490 -0.050000 -0.020706
v 0.039082 -0.050000 -0.015159
v 0.091164 0.046579 0.126547
v 0.013764 0.046579 0.113958
v -0.060490 0.050000 -0.020706
v 0.039082 0.050000 -0.015159
v 0.077986 -0.050000 0.340906
v 0.077009 0.050000 0.346142
v -0.072640 -0.050000 0.282216
v -0.072388 0.050000 0.276153
v 0.005424 -0.020611 0.378718
v 0.002607 0.022043 0.379879
v -0.048123 -0.114577 0.360320
v 0.015310 -0.064879 0.434955
v 0.087531 -0.102304 0.393531
v -0.148520 -0.040775 0.515438
v -0.098644 -0.025607 0.520052
v -0.091352 0.030579 0.532994
v -0.148520 0.038525 0.515438
v 0.156582 0.039975 0.598335
v 0.083822 0.017347 0.593132
v 0.084815 -0.017177 0.592780
v 0.156582 -0.040964 0.598335
v 0.058113 0.126382 0.543104
v -0.018619 0.075563 0.563929
v -0.039304 0.145686 0.526846
v -0.045061 0.040127 0.709112
v -0.045728 -0.000972 0.803570
v -0.079232 -0.002056 0.726341
v -0.027414 -0.116971 0.556179
v 0.093918 0.117678 0.427904
v 0.002569 0.064821 0.447748
v -0.028468 0.132086 0.384309
v 0.092006 0.021536 0.488167
v 0.177577 0.049494 0.465191
v 0.093043 -0.021117 0.487340
v 0.177595 -0.050506 0.465166
v 0.049961 0.042650 0.227487
v 0.049961 -0.042650 0.227487
v -0.028571 -0.042650 0.203661
v -0.028571 0.042650 0.203661
v -0.062868 -0.033996 0.428864
v -0.116444 -0.055943 0.386464
v -0.056960 0.040090 0.448447
v -0.116430 0.052955 0.385565
vt 0.1746 0.5868
vt 0.1922 0.6767
vt 0.0004 0.6733
vt 0.5653 0.7694
vt 0.5380 0.8388
vt 0.4043 0.8736
vt 0.5399 0.9008
vt 0.5658 0.9827
vt 0.4043 0.8744
vt 0.2626 0.6865
vt 0.2628 0.7602
vt 0.0004 0.7237
vt 0.2069 0.4713
vt 0.2105 0.5402
vt 0.0004 0.3790
vt 0.6641 0.5081
vt 0.6637 0.5395
vt 0.4387 0.5165
vt 0.2171 0.0004
vt 0.2100 0.0696
vt 0.0004 0.1529
vt 0.6435 0.3790
vt 0.6358 0.4507
vt 0.4387 0.3940
vt 0.1710 0.8229
vt 0.1749 0.8777
vt 0.0004 0.7694
vt 0.5468 0.3113
vt 0.5339 0.3626
vt 0.3580 0.3306
vt 0.6265 0.5464
vt 0.6317 0.5938
vt 0.4516 0.6537
vt 0.8531 0.1233
vt 0.8095 0.2433
vt 0.6738 0.1223
vt 0.8925 0.2751
vt 0.8264 0.3255
vt 0.7107 0.2751
vt 0.6563 0.6756
vt 0.6930 0.7686
vt 0.5311 0.6917
vt 0.8798 0.7638
vt 0.7887 0.7638
vt 0.7887 0.6730
vt 0.8798 0.6730
vt 0.1042 0.9945
vt 0.0004 0.9846
vt 0.0050 0.8935
vt 0.1042 0.8836
vt 0.8658 0.3782
vt 0.9300 0.3319
vt 0.3056 0.0776
vt 0.3401 0.0004
vt 0.2974 0.8774
vt 0.2537 0.8109
vt 0.3270 0.7694
vt 0.4035 0.8609
vt 0.6160 0.3782
vt 0.6363 0.3113
vt 0.3334 0.5457
vt 0.3031 0.4674
vt 0.7598 0.5456
vt 0.7600 0.5067
vt 0.8878 0.5067
vt 0.8869 0.5457
vt 0.7205 0.6055
vt 0.7482 0.5464
vt 0.8493 0.5665
vt 0.7781 0.6582
vt 0.1698 0.3254
vt 0.0983 0.2462
vt 0.1676 0.1723
vt 0.2253 0.2564
vt 0.7546 0.4774
vt 0.7660 0.3790
vt 0.6458 0.8440
vt 0.6960 0.7708
vt 0.7880 0.7686
vt 0.7220 0.6730
vt 0.3509 0.8935
vt 0.3509 0.9846
vt 0.2054 0.9996
vt 0.2054 0.8785
vt 0.4812 0.0891
vt 0.4359 0.0004
vt 0.5831 0.0004
vt 0.5876 0.0810
vt 0.3856 0.7685
vt 0.3853 0.6775
vt 0.5303 0.6775
vt 0.5274 0.7686
vt 0.8423 0.0004
vt 0.9734 0.0154
vt 0.9734 0.1065
vt 0.8423 0.1215
vt 0.3219 0.6608
vt 0.2783 0.5500
vt 0.3761 0.5464
vt 0.4508 0.6767
vt 0.9480 0.1223
vt 0.8771 0.2513
vt 0.7539 0.1164
vt 0.6738 0.1065
vt 0.6791 0.0154
vt 0.7539 0.0055
vt 0.3139 0.1723
vt 0.3572 0.2522
vt 0.4806 0.1904
vt 0.5803 0.1692
vt 0.5867 0.2912
vt 0.6730 0.2632
vt 0.6751 0.9960
vt 0.6478 0.9021
vt 0.7564 0.9415
vt 0.7154 0.8744
vt 0.7126 0.8736
vt 0.8175 0.8168
vt 0.4379 0.4451
vt 0.3944 0.3790
vt 0.3922 0.1716
vt 0.4351 0.1057
vt 0.1159 0.3782
vt 0.0004 0.2822
vt 0.8575 0.4831
vt 0.8725 0.3932
vt 0.7002 0.3750
vt 0.7099 0.3373
vn 0.0869 0.8609 0.5013
vn -0.8815 -0.3960 -0.2572
vn 0.5281 -0.8421 -0.1094
vn 0.7122 0.0000 0.7020
vn -0.3044 -0.9455 -0.1158
vn -0.8507 -0.0191 -0.5254
vn -0.2894 0.9525 -0.0953
vn -0.9500 0.0000 0.3121
vn 0.0874 0.9832 0.1605
vn 0.9907 -0.1100 -0.0807
vn 0.2830 -0.9556 0.0825
vn 0.0955 -0.9952 -0.0223
vn 0.6052 0.6315 0.4847
vn -0.6714 0.7368 0.0800
vn 0.0556 -0.0000 -0.9985
vn 0.9729 0.0117 -0.2309
vn 0.5711 0.6620 0.4853
vn -0.3025 0.9530 0.0178
vn 0.2527 0.9670 0.0330
vn 0.9134 -0.1833 0.3635
vn -0.3207 -0.9471 0.0142
vn -0.7739 -0.0497 0.6313
vn 0.2824 -0.9555 0.0855
vn -0.0087 0.9993 0.0374
vn -0.9706 -0.0011 -0.2406
vn -0.9137 -0.3992 -0.0755
vn -0.7943 0.3563 0.4921
vn 0.9386 0.0000 -0.3450
vn 0.0267 -0.9969 -0.0741
vn 0.7721 0.0206 -0.6352
vn -0.8757 0.0000 0.4829
vn 0.3077 0.6967 -0.6480
vn 0.2481 -0.6892 -0.6808
vn -0.8642 -0.0153 -0.5029
vn -0.0042 0.9997 0.0257
vn -0.0015 0.9997 0.0262
vn -0.0042 -0.9997 0.0257
vn -0.0015 -0.9997 0.0262
vn 0.5492 -0.8106 0.2034
vn 0.5049 -0.7207 0.4751
vn 0.1660 0.9846 -0.0552
vn -0.8754 -0.2635 0.4052
vn 0.9878 0.0001 0.1558
vn -0.9967 -0.0250 -0.0778
vn -0.2700 -0.9390 0.2130
vn -0.2531 0.9431 0.2157
vn -0.9043 -0.0000 -0.4268
vn -0.0087 -0.9993 0.0374
vn 0.0305 0.9968 -0.0740
vn 0.9258 0.0000 0.3779
vn -0.9248 -0.0115 -0.3804
vn 0.2582 -0.9490 0.1811
vn 0.6701 -0.1470 0.7275
vn 0.0825 0.9873 0.1358
usemtl entarm
s off
f 26/1/1 28/2/1 29/3/1
f 28/4/2 27/5/2 29/6/2
f 27/7/3 26/8/3 29/9/3
f 25/10/4 22/11/4 30/12/4
f 24/13/5 25/14/5 30/15/5
f 23/16/6 24/17/6 30/18/6
f 22/19/7 23/20/7 30/21/7
f 21/22/8 18/23/8 31/24/8
f 20/25/9 21/26/9 31/27/9
f 19/28/10 20/29/10 31/30/10
f 18/31/11 19/32/11 31/33/11
f 15/34/12 17/35/12 32/36/12
f 17/37/13 16/38/13 32/39/13
f 16/40/14 15/41/14 32/42/14
f 8/43/15 4/44/15 3/45/15 7/46/15
f 40/47/16 10/48/16 9/49/16 41/50/16
f 13/51/17 16/38/17 17/37/17 9/52/17
f 36/53/18 23/20/18 22/19/18 37/54/18
f 47/55/19 46/56/19 14/57/19 12/58/19
f 46/59/20 20/29/20 19/28/20 44/60/20
f 39/61/21 25/14/21 24/13/21 38/62/21
f 38/63/22 36/64/22 14/65/22 13/66/22
f 44/67/23 45/68/23 11/69/23 13/70/23
f 43/71/24 40/72/24 5/73/24 6/74/24
f 45/75/25 18/23/25 21/22/25 47/76/25
f 34/77/26 27/5/26 28/4/26 35/78/26
f 11/79/27 15/41/27 16/40/27 13/80/27
f 4/81/28 8/82/28 5/83/28 1/84/28
f 41/85/29 9/86/29 11/87/29 42/88/29
f 37/89/30 39/90/30 9/91/30 10/92/30
f 6/93/31 7/94/31 3/95/31 2/96/31
f 35/97/32 33/98/32 10/99/32 12/100/32
f 17/35/33 15/34/33 11/101/33 9/102/33
f 42/103/34 11/104/34 12/105/34 43/106/34
f 5/73/35 8/107/35 6/74/35
f 8/107/36 7/108/36 6/74/36
f 1/109/37 2/110/37 4/111/37
f 2/110/38 3/112/38 4/111/38
f 33/113/39 26/8/39 27/7/39 34/114/39
f 10/115/40 33/113/40 34/114/40 14/116/40
f 28/2/41 26/1/41 33/98/41 35/97/41
f 14/117/42 34/77/42 35/78/42 12/118/42
f 22/11/43 25/10/43 39/90/43 37/89/43
f 24/17/44 23/16/44 36/64/44 38/63/44
f 9/119/45 39/61/45 38/62/45 13/120/45
f 14/121/46 36/53/46 37/54/46 10/122/46
f 2/96/47 42/103/47 43/106/47 6/93/47
f 1/109/48 41/85/48 42/88/48 2/110/48
f 12/123/49 10/124/49 40/72/49 43/71/49
f 5/83/50 40/47/50 41/50/50 1/84/50
f 11/125/51 45/75/51 47/76/51 12/126/51
f 19/32/52 18/31/52 45/68/52 44/67/52
f 14/127/53 46/59/53 44/60/53 13/128/53
f 21/26/54 20/25/54 46/56/54 47/55/54
